<svg xmlns="http://www.w3.org/2000/svg" xmlns:xlink="http://www.w3.org/1999/xlink" width="1200" zoomAndPan="magnify" viewBox="0 0 1440 809.999993" height="1200" preserveAspectRatio="xMidYMid meet" version="1.0"><defs><clipPath id="9a26a4e8f2"><path d="M 687.105469 590 L 891 590 L 891 745.5 L 687.105469 745.5 Z M 687.105469 590 " clip-rule="nonzero"/></clipPath><clipPath id="1227294867"><path d="M 687.105469 81 L 1032 81 L 1032 537 L 687.105469 537 Z M 687.105469 81 " clip-rule="nonzero"/></clipPath><clipPath id="1b256fca08"><path d="M 687.105469 179 L 841 179 L 841 318 L 687.105469 318 Z M 687.105469 179 " clip-rule="nonzero"/></clipPath><clipPath id="51e63df466"><path d="M 687.105469 552 L 900 552 L 900 647 L 687.105469 647 Z M 687.105469 552 " clip-rule="nonzero"/></clipPath><clipPath id="7248fc5634"><path d="M 687.105469 267 L 794 267 L 794 603 L 687.105469 603 Z M 687.105469 267 " clip-rule="nonzero"/></clipPath><clipPath id="0925dfb733"><path d="M 687.105469 268 L 821 268 L 821 536 L 687.105469 536 Z M 687.105469 268 " clip-rule="nonzero"/></clipPath><clipPath id="5d9821b0ad"><path d="M 687.105469 311 L 823 311 L 823 520 L 687.105469 520 Z M 687.105469 311 " clip-rule="nonzero"/></clipPath></defs><path fill="#43b1f8" d="M 966.796875 631.960938 L 960.082031 626.089844 C 1011.589844 567.207031 1039.953125 491.644531 1039.953125 413.320312 C 1039.953125 404.09375 1039.5625 394.78125 1038.785156 385.644531 L 1047.671875 384.886719 C 1048.472656 394.277344 1048.871094 403.84375 1048.871094 413.320312 C 1048.871094 493.804688 1019.726562 571.449219 966.796875 631.960938 " fill-opacity="1" fill-rule="nonzero"/><path fill="#43b1f8" d="M 1031.449219 386.910156 C 1030.875 380.449219 1035.644531 374.75 1042.097656 374.171875 C 1048.558594 373.597656 1054.257812 378.367188 1054.835938 384.824219 C 1055.410156 391.277344 1050.640625 396.984375 1044.183594 397.558594 C 1037.730469 398.132812 1032.023438 393.363281 1031.449219 386.910156 " fill-opacity="1" fill-rule="nonzero"/><path fill="#57effe" d="M 955.132812 620.636719 C 950.796875 625.449219 951.179688 632.875 955.988281 637.214844 C 960.800781 641.558594 968.226562 641.171875 972.566406 636.359375 C 976.910156 631.546875 976.527344 624.125 971.714844 619.78125 C 966.902344 615.441406 959.480469 615.824219 955.132812 620.636719 " fill-opacity="1" fill-rule="nonzero"/><path fill="#43b1f8" d="M 971.414062 635.316406 C 975.167969 631.148438 974.839844 624.703125 970.667969 620.945312 C 966.5 617.183594 960.054688 617.515625 956.292969 621.683594 C 952.539062 625.847656 952.867188 632.296875 957.035156 636.054688 C 961.207031 639.816406 967.652344 639.480469 971.414062 635.316406 C 975.167969 631.148438 967.652344 639.480469 971.414062 635.316406 Z M 953.980469 619.589844 C 958.890625 614.148438 967.316406 613.710938 972.757812 618.621094 C 978.207031 623.535156 978.640625 631.964844 973.726562 637.40625 C 968.816406 642.847656 960.390625 643.285156 954.941406 638.375 C 949.5 633.464844 949.066406 625.039062 953.980469 619.589844 C 958.890625 614.148438 949.066406 625.039062 953.980469 619.589844 " fill-opacity="1" fill-rule="nonzero"/><g clip-path="url(#9a26a4e8f2)"><path fill="#43b1f8" d="M 716.597656 745.578125 C 604.214844 745.578125 500.277344 689.402344 438.558594 595.316406 L 446.015625 590.425781 C 506.082031 681.988281 607.230469 736.65625 716.597656 736.65625 C 776.519531 736.65625 835.023438 720.144531 885.789062 688.921875 L 890.464844 696.515625 C 838.289062 728.609375 778.167969 745.578125 716.597656 745.578125 " fill-opacity="1" fill-rule="nonzero"/></g><path fill="#43b1f8" d="M 881.375 682.84375 C 886.902344 679.453125 894.132812 681.191406 897.515625 686.714844 C 900.90625 692.246094 899.171875 699.472656 893.644531 702.859375 C 888.117188 706.246094 880.890625 704.515625 877.503906 698.984375 C 874.117188 693.460938 875.851562 686.234375 881.375 682.84375 " fill-opacity="1" fill-rule="nonzero"/><g clip-path="url(#1227294867)"><path fill="#43b1f8" d="M 407.9375 536.566406 C 392.265625 497.371094 384.328125 455.90625 384.328125 413.320312 C 384.328125 230.109375 533.382812 81.0625 716.597656 81.0625 C 859.484375 81.0625 986.074219 171.988281 1031.601562 307.320312 L 1023.148438 310.160156 C 978.84375 178.46875 855.652344 89.980469 716.597656 89.980469 C 538.296875 89.980469 393.246094 235.03125 393.246094 413.320312 C 393.246094 454.761719 400.972656 495.117188 416.21875 533.261719 L 407.9375 536.566406 " fill-opacity="1" fill-rule="nonzero"/></g><path fill="#57effe" d="M 1015.976562 311.65625 C 1017.929688 317.835938 1024.523438 321.261719 1030.703125 319.3125 C 1036.886719 317.359375 1040.3125 310.761719 1038.359375 304.582031 C 1036.40625 298.398438 1029.8125 294.972656 1023.628906 296.925781 C 1017.449219 298.882812 1014.019531 305.480469 1015.976562 311.65625 " fill-opacity="1" fill-rule="nonzero"/><path fill="#43b1f8" d="M 1036.871094 305.050781 C 1035.179688 299.703125 1029.449219 296.722656 1024.101562 298.417969 C 1018.746094 300.109375 1015.773438 305.835938 1017.464844 311.1875 C 1019.15625 316.539062 1024.882812 319.515625 1030.234375 317.824219 C 1035.589844 316.132812 1038.5625 310.40625 1036.871094 305.050781 C 1035.179688 299.703125 1038.5625 310.40625 1036.871094 305.050781 Z M 1014.488281 312.125 C 1012.273438 305.132812 1016.167969 297.648438 1023.160156 295.4375 C 1030.152344 293.230469 1037.636719 297.117188 1039.847656 304.109375 C 1042.058594 311.101562 1038.167969 318.589844 1031.175781 320.796875 C 1024.183594 323.011719 1016.691406 319.117188 1014.488281 312.125 C 1012.273438 305.132812 1016.691406 319.117188 1014.488281 312.125 " fill-opacity="1" fill-rule="nonzero"/><path fill="#43b1f8" d="M 844.804688 658.375 L 840.667969 650.476562 C 929.203125 604.070312 984.203125 513.195312 984.203125 413.320312 C 984.203125 267.585938 865.671875 147.558594 719.984375 145.75 L 720.09375 136.832031 C 793.222656 137.742188 861.828125 166.902344 913.273438 218.953125 C 964.765625 271.039062 993.121094 340.070312 993.121094 413.320312 C 993.121094 516.523438 936.292969 610.421875 844.804688 658.375 " fill-opacity="1" fill-rule="nonzero"/><path fill="#43b1f8" d="M 720.632812 153.109375 C 714.148438 153.113281 708.886719 147.859375 708.886719 141.382812 C 708.882812 134.898438 714.136719 129.636719 720.621094 129.636719 C 727.101562 129.632812 732.359375 134.886719 732.363281 141.371094 C 732.363281 147.847656 727.109375 153.109375 720.632812 153.109375 " fill-opacity="1" fill-rule="nonzero"/><path fill="#57effe" d="M 837.929688 643.535156 C 832.152344 646.472656 829.859375 653.546875 832.804688 659.316406 C 835.75 665.09375 842.820312 667.386719 848.59375 664.441406 C 854.367188 661.496094 856.660156 654.429688 853.71875 648.65625 C 850.773438 642.882812 843.699219 640.585938 837.929688 643.535156 " fill-opacity="1" fill-rule="nonzero"/><path fill="#43b1f8" d="M 847.882812 663.050781 C 852.886719 660.507812 854.875 654.363281 852.328125 649.363281 C 849.777344 644.367188 843.640625 642.371094 838.640625 644.925781 C 833.636719 647.46875 831.644531 653.613281 834.195312 658.613281 C 836.746094 663.609375 842.882812 665.601562 847.882812 663.050781 C 852.886719 660.507812 842.882812 665.601562 847.882812 663.050781 Z M 837.21875 642.144531 C 843.75 638.808594 851.777344 641.414062 855.109375 647.945312 C 858.441406 654.476562 855.832031 662.503906 849.300781 665.832031 C 842.769531 669.167969 834.742188 666.5625 831.414062 660.03125 C 828.085938 653.496094 830.6875 645.472656 837.21875 642.144531 C 843.75 638.808594 830.6875 645.472656 837.21875 642.144531 " fill-opacity="1" fill-rule="nonzero"/><g clip-path="url(#1b256fca08)"><path fill="#43b1f8" d="M 513.5 317.5625 L 505.433594 313.75 C 543.839844 232.453125 626.722656 179.925781 716.597656 179.925781 C 760.449219 179.925781 803.183594 192.152344 840.179688 215.285156 L 835.449219 222.84375 C 799.871094 200.597656 758.773438 188.84375 716.597656 188.84375 C 630.15625 188.84375 550.4375 239.367188 513.5 317.5625 " fill-opacity="1" fill-rule="nonzero"/></g><path fill="#57effe" d="M 830.785156 228.640625 C 836.222656 232.179688 843.492188 230.636719 847.023438 225.203125 C 850.5625 219.765625 849.015625 212.496094 843.585938 208.964844 C 838.148438 205.433594 830.878906 206.972656 827.34375 212.402344 C 823.8125 217.839844 825.351562 225.109375 830.785156 228.640625 " fill-opacity="1" fill-rule="nonzero"/><path fill="#43b1f8" d="M 842.738281 210.273438 C 838.027344 207.214844 831.714844 208.550781 828.652344 213.257812 C 825.59375 217.960938 826.929688 224.273438 831.636719 227.332031 C 836.339844 230.394531 842.65625 229.058594 845.714844 224.355469 C 848.777344 219.648438 847.441406 213.335938 842.738281 210.273438 C 838.027344 207.214844 847.441406 213.335938 842.738281 210.273438 Z M 829.933594 229.957031 C 823.785156 225.953125 822.039062 217.703125 826.035156 211.554688 C 830.035156 205.40625 838.289062 203.660156 844.433594 207.65625 C 850.582031 211.652344 852.328125 219.910156 848.339844 226.054688 C 844.335938 232.203125 836.085938 233.953125 829.933594 229.957031 C 823.785156 225.953125 836.085938 233.953125 829.933594 229.957031 " fill-opacity="1" fill-rule="nonzero"/><path fill="#43b1f8" d="M 925.730469 517.078125 L 917.742188 513.109375 C 933.234375 481.949219 941.089844 448.375 941.089844 413.320312 C 941.089844 375.082031 931.304688 337.328125 912.792969 304.136719 L 920.585938 299.796875 C 939.835938 334.304688 950.007812 373.5625 950.007812 413.320312 C 950.007812 449.765625 941.839844 484.675781 925.730469 517.078125 " fill-opacity="1" fill-rule="nonzero"/><path fill="#43b1f8" d="M 906.726562 308.402344 C 903.484375 302.789062 905.414062 295.613281 911.023438 292.371094 C 916.636719 289.128906 923.820312 291.050781 927.0625 296.667969 C 930.296875 302.28125 928.375 309.460938 922.765625 312.699219 C 917.144531 315.941406 909.96875 314.019531 906.726562 308.402344 " fill-opacity="1" fill-rule="nonzero"/><path fill="#57effe" d="M 911.621094 509.011719 C 908.597656 514.746094 910.796875 521.847656 916.527344 524.867188 C 922.265625 527.890625 929.367188 525.695312 932.390625 519.960938 C 935.410156 514.222656 933.210938 507.125 927.476562 504.101562 C 921.746094 501.078125 914.644531 503.28125 911.621094 509.011719 " fill-opacity="1" fill-rule="nonzero"/><path fill="#43b1f8" d="M 931.011719 519.230469 C 933.628906 514.269531 931.714844 508.097656 926.75 505.488281 C 921.785156 502.863281 915.617188 504.773438 913 509.742188 C 910.382812 514.707031 912.296875 520.871094 917.261719 523.488281 C 922.222656 526.105469 928.386719 524.195312 931.011719 519.230469 C 933.628906 514.269531 928.386719 524.195312 931.011719 519.230469 Z M 910.242188 508.285156 C 913.660156 501.796875 921.71875 499.304688 928.207031 502.722656 C 934.695312 506.144531 937.1875 514.203125 933.769531 520.683594 C 930.347656 527.171875 922.289062 529.667969 915.804688 526.246094 C 909.316406 522.832031 906.820312 514.773438 910.242188 508.285156 C 913.660156 501.796875 906.820312 514.773438 910.242188 508.285156 " fill-opacity="1" fill-rule="nonzero"/><g clip-path="url(#51e63df466)"><path fill="#43b1f8" d="M 716.597656 646.71875 C 649.316406 646.71875 585.289062 617.664062 540.929688 567.003906 L 547.640625 561.128906 C 590.308594 609.851562 651.890625 637.796875 716.597656 637.796875 C 785.671875 637.796875 849.886719 606.691406 892.78125 552.449219 L 899.777344 557.980469 C 855.183594 614.375 788.417969 646.71875 716.597656 646.71875 " fill-opacity="1" fill-rule="nonzero"/></g><path fill="#43b1f8" d="M 886.535156 548.554688 C 890.453125 543.390625 897.824219 542.386719 902.980469 546.308594 C 908.144531 550.226562 909.152344 557.59375 905.226562 562.753906 C 901.304688 567.917969 893.941406 568.921875 888.777344 565 C 883.621094 561.078125 882.613281 553.710938 886.535156 548.554688 " fill-opacity="1" fill-rule="nonzero"/><path fill="#43b1f8" d="M 886.605469 495.800781 L 878.582031 491.902344 C 890.535156 467.308594 896.597656 440.871094 896.597656 413.320312 C 896.597656 323.410156 829.492188 246.710938 740.5 234.90625 L 741.671875 226.0625 C 835.082031 238.453125 905.515625 318.957031 905.515625 413.320312 C 905.515625 442.234375 899.15625 469.988281 886.605469 495.800781 " fill-opacity="1" fill-rule="nonzero"/><path fill="#43b1f8" d="M 740.410156 242.273438 C 733.957031 241.585938 729.300781 235.796875 729.988281 229.347656 C 730.683594 222.90625 736.472656 218.246094 742.917969 218.933594 C 749.359375 219.628906 754.027344 225.417969 753.332031 231.863281 C 752.640625 238.304688 746.851562 242.96875 740.410156 242.273438 " fill-opacity="1" fill-rule="nonzero"/><path fill="#57effe" d="M 872.460938 487.757812 C 869.457031 493.5 871.683594 500.59375 877.429688 503.59375 C 883.171875 506.597656 890.269531 504.371094 893.269531 498.625 C 896.269531 492.882812 894.046875 485.789062 888.300781 482.785156 C 882.554688 479.785156 875.460938 482.007812 872.460938 487.757812 " fill-opacity="1" fill-rule="nonzero"/><path fill="#43b1f8" d="M 891.882812 497.902344 C 894.484375 492.925781 892.550781 486.765625 887.578125 484.171875 C 882.601562 481.570312 876.441406 483.503906 873.84375 488.476562 C 871.246094 493.453125 873.179688 499.613281 878.152344 502.210938 C 883.128906 504.808594 889.289062 502.878906 891.882812 497.902344 C 894.484375 492.925781 889.289062 502.878906 891.882812 497.902344 Z M 871.078125 487.035156 C 874.472656 480.53125 882.527344 478.007812 889.019531 481.402344 C 895.523438 484.796875 898.046875 492.851562 894.652344 499.347656 C 891.257812 505.847656 883.203125 508.371094 876.707031 504.976562 C 870.207031 501.582031 867.683594 493.535156 871.078125 487.035156 C 874.472656 480.53125 867.683594 493.535156 871.078125 487.035156 " fill-opacity="1" fill-rule="nonzero"/><g clip-path="url(#7248fc5634)"><path fill="#43b1f8" d="M 716.597656 602.230469 C 612.429688 602.230469 527.679688 517.488281 527.679688 413.320312 C 527.679688 356.535156 552.882812 303.277344 596.835938 267.21875 L 602.492188 274.113281 C 560.617188 308.472656 536.601562 359.214844 536.601562 413.320312 C 536.601562 512.566406 617.351562 593.304688 716.597656 593.304688 C 742.132812 593.304688 766.804688 588.070312 789.917969 577.75 L 793.558594 585.890625 C 769.289062 596.734375 743.398438 602.230469 716.597656 602.230469 " fill-opacity="1" fill-rule="nonzero"/></g><path fill="#43b1f8" d="M 786.117188 571.453125 C 791.957031 568.652344 798.972656 571.125 801.769531 576.972656 C 804.574219 582.816406 802.097656 589.828125 796.257812 592.625 C 790.410156 595.425781 783.394531 592.957031 780.597656 587.109375 C 777.800781 581.261719 780.269531 574.253906 786.117188 571.453125 " fill-opacity="1" fill-rule="nonzero"/><path fill="#43b1f8" d="M 732.503906 556.875 L 731.53125 548.003906 C 800.269531 540.472656 852.105469 482.574219 852.105469 413.320312 C 852.105469 401.769531 850.648438 390.285156 847.78125 379.210938 L 856.414062 376.976562 C 859.476562 388.78125 861.023438 401.011719 861.023438 413.320312 C 861.023438 487.128906 805.773438 548.84375 732.503906 556.875 " fill-opacity="1" fill-rule="nonzero"/><path fill="#43b1f8" d="M 840.984375 382.035156 C 839.128906 375.828125 842.65625 369.285156 848.867188 367.429688 C 855.078125 365.566406 861.621094 369.097656 863.476562 375.308594 C 865.332031 381.515625 861.808594 388.058594 855.597656 389.914062 C 849.390625 391.777344 842.847656 388.246094 840.984375 382.035156 " fill-opacity="1" fill-rule="nonzero"/><path fill="#57effe" d="M 731.867188 540.640625 C 725.402344 541.078125 720.511719 546.679688 720.949219 553.144531 C 721.394531 559.613281 726.992188 564.5 733.460938 564.0625 C 739.925781 563.621094 744.8125 558.019531 744.371094 551.554688 C 743.933594 545.085938 738.332031 540.199219 731.867188 540.640625 " fill-opacity="1" fill-rule="nonzero"/><path fill="#43b1f8" d="M 733.351562 562.503906 C 738.953125 562.121094 743.195312 557.257812 742.816406 551.65625 C 742.433594 546.0625 737.570312 541.820312 731.972656 542.195312 C 726.371094 542.578125 722.125 547.441406 722.507812 553.042969 C 722.886719 558.636719 727.753906 562.886719 733.351562 562.503906 C 738.953125 562.121094 727.753906 562.886719 733.351562 562.503906 Z M 731.761719 539.082031 C 739.078125 538.582031 745.433594 544.132812 745.933594 551.449219 C 746.429688 558.765625 740.878906 565.121094 733.5625 565.617188 C 726.25 566.117188 719.890625 560.566406 719.394531 553.25 C 718.894531 545.9375 724.441406 539.578125 731.761719 539.082031 C 739.078125 538.582031 724.441406 539.578125 731.761719 539.082031 " fill-opacity="1" fill-rule="nonzero"/><g clip-path="url(#0925dfb733)"><path fill="#43b1f8" d="M 639.585938 535.515625 C 597.375 508.859375 572.171875 463.179688 572.171875 413.320312 C 572.171875 333.6875 636.964844 268.90625 716.597656 268.90625 C 756.296875 268.90625 793.300781 284.679688 820.800781 313.320312 L 814.363281 319.496094 C 788.5625 292.625 753.84375 277.824219 716.597656 277.824219 C 641.878906 277.824219 581.09375 338.609375 581.09375 413.320312 C 581.09375 460.105469 604.742188 502.960938 644.347656 527.972656 L 639.585938 535.515625 " fill-opacity="1" fill-rule="nonzero"/></g><path fill="#57effe" d="M 808.308594 323.75 C 812.613281 328.601562 820.03125 329.042969 824.882812 324.738281 C 829.734375 320.441406 830.175781 313.023438 825.871094 308.171875 C 821.574219 303.320312 814.15625 302.878906 809.304688 307.179688 C 804.453125 311.480469 804.011719 318.898438 808.308594 323.75 " fill-opacity="1" fill-rule="nonzero"/><path fill="#43b1f8" d="M 824.707031 309.207031 C 820.984375 305.007812 814.539062 304.625 810.339844 308.347656 C 806.140625 312.070312 805.757812 318.515625 809.480469 322.714844 C 813.203125 326.914062 819.648438 327.296875 823.847656 323.574219 C 828.046875 319.851562 828.429688 313.40625 824.707031 309.207031 C 820.984375 305.007812 828.429688 313.40625 824.707031 309.207031 Z M 807.140625 324.785156 C 802.28125 319.296875 802.785156 310.878906 808.269531 306.011719 C 813.757812 301.148438 822.175781 301.652344 827.042969 307.136719 C 831.90625 312.625 831.402344 321.042969 825.917969 325.910156 C 820.429688 330.773438 812.007812 330.269531 807.140625 324.785156 C 802.28125 319.296875 812.007812 330.269531 807.140625 324.785156 " fill-opacity="1" fill-rule="nonzero"/><g clip-path="url(#5d9821b0ad)"><path fill="#43b1f8" d="M 716.597656 519.085938 C 658.273438 519.085938 610.824219 471.640625 610.824219 413.320312 C 610.824219 405.640625 611.65625 397.972656 613.289062 390.53125 L 622 392.449219 C 620.503906 399.253906 619.75 406.277344 619.75 413.320312 C 619.75 466.722656 663.195312 510.167969 716.597656 510.167969 C 770.003906 510.167969 813.449219 466.722656 813.449219 413.320312 C 813.449219 370.277344 784.578125 331.976562 743.234375 320.179688 L 745.679688 311.605469 C 790.835938 324.488281 822.375 366.316406 822.375 413.320312 C 822.375 471.640625 774.925781 519.085938 716.597656 519.085938 " fill-opacity="1" fill-rule="nonzero"/></g><path fill="#43b1f8" d="M 742.296875 327.558594 C 735.988281 326.066406 732.085938 319.734375 733.582031 313.429688 C 735.070312 307.121094 741.398438 303.21875 747.707031 304.710938 C 754.015625 306.207031 757.917969 312.535156 756.421875 318.84375 C 754.929688 325.152344 748.605469 329.054688 742.296875 327.558594 " fill-opacity="1" fill-rule="nonzero"/></svg>