<svg xmlns="http://www.w3.org/2000/svg" xmlns:xlink="http://www.w3.org/1999/xlink" width="1640" zoomAndPan="magnify" viewBox="0 0 1230 693.000001" height="924" preserveAspectRatio="xMidYMid meet" version="1.0"><defs><clipPath id="c1d88ba39f"><path d="M 628 133.886719 L 759 133.886719 L 759 190 L 628 190 Z M 628 133.886719 " clip-rule="nonzero"/></clipPath><clipPath id="db31710c1f"><path d="M 497 133.886719 L 629 133.886719 L 629 190 L 497 190 Z M 497 133.886719 " clip-rule="nonzero"/></clipPath><clipPath id="e5f6135aad"><path d="M 627 415 L 629 415 L 629 516.585938 L 627 516.585938 Z M 627 415 " clip-rule="nonzero"/></clipPath><clipPath id="23f7bfede9"><path d="M 430.046875 318 L 510 318 L 510 319 L 430.046875 319 Z M 430.046875 318 " clip-rule="nonzero"/></clipPath></defs><path fill="#479ece" d="M 757.410156 447.839844 C 722.851562 482.421875 677.019531 501.410156 628.207031 501.410156 L 628.207031 503.234375 C 677.519531 503.234375 723.847656 484.078125 758.652344 449.167969 Z M 757.410156 447.839844 " fill-opacity="1" fill-rule="nonzero"/><path fill="#479ece" d="M 499.082031 447.839844 L 497.757812 449.167969 C 532.566406 483.996094 578.976562 503.234375 628.207031 503.234375 L 628.207031 501.410156 C 579.472656 501.410156 533.644531 482.421875 499.082031 447.839844 Z M 499.082031 447.839844 " fill-opacity="1" fill-rule="nonzero"/><path fill="#479ece" d="M 445.628906 318.5625 L 443.804688 318.5625 C 443.804688 367.902344 462.949219 414.253906 497.839844 449.085938 L 499.167969 447.757812 C 464.605469 413.34375 445.628906 367.402344 445.628906 318.5625 Z M 445.628906 318.5625 " fill-opacity="1" fill-rule="nonzero"/><g clip-path="url(#c1d88ba39f)"><path fill="#479ece" d="M 757.410156 189.363281 L 758.738281 188.035156 C 723.929688 153.125 677.519531 133.886719 628.289062 133.886719 L 628.289062 135.710938 C 677.019531 135.792969 722.933594 154.867188 757.410156 189.363281 Z M 757.410156 189.363281 " fill-opacity="1" fill-rule="nonzero"/></g><g clip-path="url(#db31710c1f)"><path fill="#479ece" d="M 499.082031 189.363281 C 533.644531 154.785156 579.472656 135.792969 628.289062 135.792969 L 628.289062 133.96875 C 578.976562 133.96875 532.648438 153.125 497.839844 188.035156 Z M 499.082031 189.363281 " fill-opacity="1" fill-rule="nonzero"/></g><path fill="#479ece" d="M 499.082031 189.363281 L 497.757812 188.035156 C 462.949219 222.867188 443.722656 269.21875 443.722656 318.476562 L 445.542969 318.476562 C 445.628906 269.71875 464.605469 223.859375 499.082031 189.363281 Z M 499.082031 189.363281 " fill-opacity="1" fill-rule="nonzero"/><path fill="#479ece" d="M 628.289062 488.226562 L 628.289062 490.050781 C 674.035156 490.050781 717.050781 472.21875 749.453125 439.796875 L 748.128906 438.46875 C 716.136719 470.5625 673.539062 488.226562 628.289062 488.226562 Z M 628.289062 488.226562 " fill-opacity="1" fill-rule="nonzero"/><path fill="#479ece" d="M 748.128906 198.652344 C 780.121094 230.660156 797.773438 273.285156 797.773438 318.644531 L 799.59375 318.644531 C 799.59375 272.867188 781.777344 229.832031 749.371094 197.40625 Z M 748.128906 198.652344 " fill-opacity="1" fill-rule="nonzero"/><path fill="#479ece" d="M 628.289062 147.15625 L 628.289062 148.980469 C 673.539062 148.980469 716.136719 166.640625 748.210938 198.652344 L 749.539062 197.324219 C 717.050781 164.984375 674.035156 147.15625 628.289062 147.15625 Z M 628.289062 147.15625 " fill-opacity="1" fill-rule="nonzero"/><path fill="#479ece" d="M 748.128906 438.554688 L 749.453125 439.878906 C 781.859375 407.457031 799.679688 364.417969 799.679688 318.644531 L 797.855469 318.644531 C 797.773438 363.921875 780.203125 406.542969 748.128906 438.554688 Z M 748.128906 438.554688 " fill-opacity="1" fill-rule="nonzero"/><path fill="#479ece" d="M 475.628906 350.320312 C 475.546875 349.824219 475.050781 349.492188 474.550781 349.574219 C 474.054688 349.65625 473.722656 350.15625 473.804688 350.652344 C 473.972656 351.566406 474.136719 352.476562 474.386719 353.390625 C 474.46875 353.804688 474.882812 354.136719 475.296875 354.136719 C 475.378906 354.136719 475.378906 354.136719 475.464844 354.136719 C 475.960938 354.050781 476.292969 353.554688 476.125 353.058594 C 476.042969 352.0625 475.878906 351.148438 475.628906 350.320312 Z M 475.628906 350.320312 " fill-opacity="1" fill-rule="nonzero"/><path fill="#479ece" d="M 479.027344 363.671875 C 478.945312 363.175781 478.363281 362.925781 477.867188 363.089844 C 477.371094 363.175781 477.121094 363.753906 477.285156 364.253906 C 477.535156 365.164062 477.867188 366.078125 478.117188 366.90625 C 478.199219 367.238281 478.613281 367.484375 478.945312 367.484375 C 479.027344 367.484375 479.109375 367.484375 479.277344 367.402344 C 479.773438 367.238281 480.023438 366.738281 479.855469 366.242188 C 479.605469 365.414062 479.359375 364.5 479.027344 363.671875 Z M 479.027344 363.671875 " fill-opacity="1" fill-rule="nonzero"/><path fill="#479ece" d="M 473.558594 336.636719 C 473.472656 336.140625 472.976562 335.808594 472.480469 335.808594 C 471.984375 335.890625 471.652344 336.304688 471.652344 336.886719 C 471.734375 337.800781 471.898438 338.710938 471.984375 339.625 C 472.066406 340.121094 472.398438 340.453125 472.894531 340.453125 C 472.976562 340.453125 472.976562 340.453125 472.976562 340.453125 C 473.472656 340.371094 473.804688 339.871094 473.804688 339.375 C 473.722656 338.460938 473.558594 337.550781 473.558594 336.636719 Z M 473.558594 336.636719 " fill-opacity="1" fill-rule="nonzero"/><path fill="#479ece" d="M 522.371094 432.914062 C 522.039062 432.582031 521.378906 432.582031 521.046875 432.996094 C 520.714844 433.410156 520.714844 433.992188 521.128906 434.324219 C 521.792969 434.902344 522.453125 435.566406 523.199219 436.230469 C 523.367188 436.398438 523.53125 436.480469 523.78125 436.480469 C 524.03125 436.480469 524.277344 436.398438 524.445312 436.148438 C 524.773438 435.816406 524.773438 435.152344 524.359375 434.820312 C 523.699219 434.15625 523.035156 433.578125 522.371094 432.914062 Z M 522.371094 432.914062 " fill-opacity="1" fill-rule="nonzero"/><path fill="#479ece" d="M 483.585938 376.691406 C 483.417969 376.191406 482.839844 376.027344 482.34375 376.191406 C 481.84375 376.359375 481.679688 376.941406 481.84375 377.4375 C 482.175781 378.265625 482.507812 379.179688 482.921875 380.007812 C 483.003906 380.339844 483.417969 380.589844 483.75 380.589844 C 483.835938 380.589844 484 380.589844 484.082031 380.503906 C 484.578125 380.339844 484.746094 379.757812 484.578125 379.261719 C 484.332031 378.347656 484 377.519531 483.585938 376.691406 Z M 483.585938 376.691406 " fill-opacity="1" fill-rule="nonzero"/><path fill="#479ece" d="M 535.136719 443.527344 C 534.390625 442.949219 533.644531 442.449219 532.898438 441.871094 C 532.484375 441.539062 531.902344 441.621094 531.570312 442.035156 C 531.238281 442.449219 531.324219 443.03125 531.738281 443.363281 C 532.484375 443.941406 533.230469 444.441406 533.976562 445.105469 C 534.140625 445.1875 534.304688 445.269531 534.554688 445.269531 C 534.886719 445.269531 535.136719 445.1875 535.300781 444.9375 C 535.550781 444.441406 535.464844 443.859375 535.136719 443.527344 Z M 535.136719 443.527344 " fill-opacity="1" fill-rule="nonzero"/><path fill="#479ece" d="M 471.734375 326.605469 C 472.230469 326.605469 472.644531 326.191406 472.5625 325.609375 C 472.480469 324.695312 472.480469 323.785156 472.480469 322.871094 C 472.480469 322.375 472.066406 321.960938 471.566406 321.960938 C 471.070312 321.960938 470.65625 322.375 470.65625 322.871094 C 470.65625 323.785156 470.738281 324.695312 470.738281 325.609375 C 470.824219 326.273438 471.152344 326.605469 471.734375 326.605469 Z M 471.734375 326.605469 " fill-opacity="1" fill-rule="nonzero"/><path fill="#479ece" d="M 512.675781 423.128906 C 512.34375 422.796875 511.761719 422.714844 511.347656 423.046875 C 511.019531 423.378906 510.933594 423.957031 511.265625 424.371094 C 511.847656 425.035156 512.507812 425.699219 513.171875 426.363281 C 513.339844 426.527344 513.585938 426.695312 513.835938 426.695312 C 514.085938 426.695312 514.25 426.613281 514.414062 426.445312 C 514.746094 426.113281 514.746094 425.535156 514.5 425.117188 C 513.917969 424.539062 513.253906 423.875 512.675781 423.128906 Z M 512.675781 423.128906 " fill-opacity="1" fill-rule="nonzero"/><path fill="#479ece" d="M 546.488281 451.242188 C 545.660156 450.742188 544.914062 450.246094 544.167969 449.746094 C 543.753906 449.5 543.175781 449.664062 542.84375 450.078125 C 542.59375 450.492188 542.757812 451.074219 543.175781 451.40625 C 544.003906 451.902344 544.75 452.402344 545.496094 452.898438 C 545.578125 452.980469 545.824219 452.980469 545.992188 452.980469 C 546.324219 452.980469 546.570312 452.816406 546.820312 452.566406 C 546.988281 452.152344 546.902344 451.570312 546.488281 451.242188 Z M 546.488281 451.242188 " fill-opacity="1" fill-rule="nonzero"/><path fill="#479ece" d="M 496.101562 401.152344 C 495.851562 400.738281 495.269531 400.574219 494.773438 400.820312 C 494.359375 401.070312 494.195312 401.652344 494.441406 402.148438 C 494.941406 402.976562 495.4375 403.722656 495.933594 404.46875 C 496.101562 404.71875 496.429688 404.886719 496.761719 404.886719 C 496.929688 404.886719 497.09375 404.800781 497.261719 404.800781 C 497.675781 404.46875 497.839844 403.972656 497.507812 403.476562 C 497.09375 402.730469 496.597656 401.984375 496.101562 401.152344 Z M 496.101562 401.152344 " fill-opacity="1" fill-rule="nonzero"/><path fill="#479ece" d="M 489.304688 389.128906 C 489.054688 388.714844 488.476562 388.550781 488.0625 388.714844 C 487.644531 388.964844 487.480469 389.542969 487.644531 389.957031 C 488.0625 390.789062 488.476562 391.617188 488.972656 392.445312 C 489.136719 392.777344 489.46875 392.945312 489.800781 392.945312 C 489.882812 392.945312 490.132812 392.859375 490.214844 392.859375 C 490.628906 392.613281 490.796875 392.03125 490.546875 391.617188 C 490.132812 390.789062 489.71875 390.042969 489.304688 389.128906 Z M 489.304688 389.128906 " fill-opacity="1" fill-rule="nonzero"/><path fill="#479ece" d="M 503.890625 412.515625 C 503.558594 412.101562 503.0625 412.015625 502.5625 412.347656 C 502.148438 412.679688 502.066406 413.179688 502.398438 413.675781 C 502.980469 414.421875 503.476562 415.167969 504.140625 415.914062 C 504.304688 416.164062 504.554688 416.246094 504.886719 416.246094 C 505.050781 416.246094 505.300781 416.164062 505.464844 416.082031 C 505.878906 415.75 505.960938 415.167969 505.628906 414.753906 C 504.96875 414.007812 504.46875 413.261719 503.890625 412.515625 Z M 503.890625 412.515625 " fill-opacity="1" fill-rule="nonzero"/><path fill="#479ece" d="M 471.898438 308.195312 C 471.402344 308.113281 470.988281 308.527344 470.90625 309.023438 C 470.824219 309.9375 470.824219 310.847656 470.824219 311.761719 C 470.824219 312.257812 471.152344 312.671875 471.652344 312.757812 C 471.652344 312.757812 471.652344 312.757812 471.734375 312.757812 C 472.230469 312.757812 472.644531 312.425781 472.644531 311.925781 C 472.730469 311.015625 472.730469 310.101562 472.730469 309.191406 C 472.8125 308.609375 472.398438 308.195312 471.898438 308.195312 Z M 471.898438 308.195312 " fill-opacity="1" fill-rule="nonzero"/><path fill="#479ece" d="M 504.140625 222.867188 C 504.304688 222.949219 504.46875 223.03125 504.71875 223.03125 C 504.96875 223.03125 505.300781 222.949219 505.464844 222.699219 C 506.046875 221.953125 506.625 221.207031 507.207031 220.542969 C 507.535156 220.210938 507.453125 219.546875 507.121094 219.214844 C 506.789062 218.886719 506.128906 218.96875 505.796875 219.300781 C 505.214844 220.046875 504.636719 220.792969 504.054688 221.539062 C 503.640625 221.953125 503.722656 222.617188 504.140625 222.867188 Z M 504.140625 222.867188 " fill-opacity="1" fill-rule="nonzero"/><path fill="#479ece" d="M 784.015625 321.378906 C 784.015625 321.878906 784.347656 322.292969 784.925781 322.292969 C 785.421875 322.292969 785.839844 321.878906 785.839844 321.378906 C 785.839844 320.46875 785.839844 319.554688 785.839844 318.644531 L 784.015625 318.644531 C 784.015625 319.554688 784.015625 320.46875 784.015625 321.378906 Z M 784.015625 321.378906 " fill-opacity="1" fill-rule="nonzero"/><path fill="#479ece" d="M 513.667969 212.5 C 513.917969 212.5 514.167969 212.417969 514.332031 212.167969 C 514.914062 211.503906 515.660156 210.839844 516.238281 210.179688 C 516.570312 209.847656 516.570312 209.265625 516.238281 208.851562 C 515.90625 208.519531 515.328125 208.519531 514.914062 208.851562 C 514.25 209.515625 513.585938 210.179688 513.007812 210.839844 C 512.675781 211.171875 512.675781 211.835938 513.089844 212.167969 C 513.253906 212.417969 513.503906 212.5 513.667969 212.5 Z M 513.667969 212.5 " fill-opacity="1" fill-rule="nonzero"/><path fill="#479ece" d="M 785.835938 318.230469 C 785.835938 317.730469 785.421875 317.316406 784.925781 317.316406 C 784.429688 317.316406 784.015625 317.730469 784.015625 318.230469 L 784.015625 318.5625 L 785.835938 318.5625 Z M 785.835938 318.230469 " fill-opacity="1" fill-rule="nonzero"/><path fill="#479ece" d="M 480.023438 267.480469 C 479.523438 267.3125 479.027344 267.5625 478.863281 268.058594 C 478.53125 268.890625 478.28125 269.882812 478.03125 270.714844 C 477.867188 271.210938 478.117188 271.707031 478.613281 271.875 C 478.695312 271.875 478.777344 271.957031 478.945312 271.957031 C 479.277344 271.957031 479.691406 271.707031 479.773438 271.375 C 480.105469 270.546875 480.351562 269.550781 480.601562 268.722656 C 480.769531 268.140625 480.519531 267.644531 480.023438 267.480469 Z M 480.023438 267.480469 " fill-opacity="1" fill-rule="nonzero"/><path fill="#479ece" d="M 473.390625 294.429688 C 472.894531 294.347656 472.398438 294.679688 472.3125 295.257812 C 472.230469 296.171875 472.066406 297.082031 471.984375 297.996094 C 471.898438 298.492188 472.3125 298.992188 472.8125 299.074219 C 472.894531 299.074219 472.894531 299.074219 472.894531 299.074219 C 473.308594 299.074219 473.722656 298.742188 473.804688 298.242188 C 473.890625 297.332031 474.054688 296.417969 474.136719 295.507812 C 474.21875 294.925781 473.890625 294.511719 473.390625 294.429688 Z M 473.390625 294.429688 " fill-opacity="1" fill-rule="nonzero"/><path fill="#479ece" d="M 476.125 280.828125 C 475.628906 280.746094 475.132812 280.996094 475.050781 281.492188 C 474.800781 282.40625 474.632812 283.316406 474.46875 284.230469 C 474.386719 284.726562 474.632812 285.226562 475.132812 285.308594 C 475.214844 285.308594 475.214844 285.308594 475.296875 285.308594 C 475.710938 285.308594 476.125 284.976562 476.210938 284.5625 C 476.375 283.648438 476.625 282.738281 476.789062 281.824219 C 476.871094 281.410156 476.625 280.914062 476.125 280.828125 Z M 476.125 280.828125 " fill-opacity="1" fill-rule="nonzero"/><path fill="#479ece" d="M 496.101562 234.226562 C 496.265625 234.308594 496.429688 234.308594 496.597656 234.308594 C 496.929688 234.308594 497.175781 234.226562 497.425781 233.894531 C 497.921875 233.066406 498.421875 232.320312 499 231.65625 C 499.332031 231.242188 499.167969 230.660156 498.75 230.328125 C 498.335938 229.996094 497.757812 230.164062 497.425781 230.578125 C 496.929688 231.40625 496.347656 232.152344 495.851562 232.898438 C 495.601562 233.3125 495.683594 233.976562 496.101562 234.226562 Z M 496.101562 234.226562 " fill-opacity="1" fill-rule="nonzero"/><path fill="#479ece" d="M 558.507812 458.039062 C 557.675781 457.625 556.847656 457.210938 556.019531 456.714844 C 555.605469 456.464844 555.027344 456.628906 554.777344 457.046875 C 554.527344 457.460938 554.695312 458.039062 555.109375 458.289062 C 555.9375 458.703125 556.765625 459.117188 557.59375 459.617188 C 557.675781 459.699219 557.84375 459.699219 558.007812 459.699219 C 558.339844 459.699219 558.671875 459.53125 558.835938 459.199219 C 559.085938 458.871094 558.921875 458.289062 558.507812 458.039062 Z M 558.507812 458.039062 " fill-opacity="1" fill-rule="nonzero"/><path fill="#479ece" d="M 489.222656 246.25 C 489.304688 246.332031 489.550781 246.332031 489.636719 246.332031 C 489.96875 246.332031 490.296875 246.167969 490.464844 245.835938 C 490.878906 245.007812 491.292969 244.261719 491.789062 243.347656 C 492.039062 242.933594 491.875 242.351562 491.457031 242.105469 C 491.042969 241.855469 490.464844 242.019531 490.214844 242.4375 C 489.800781 243.265625 489.304688 244.09375 488.890625 244.921875 C 488.558594 245.503906 488.722656 246 489.222656 246.25 Z M 489.222656 246.25 " fill-opacity="1" fill-rule="nonzero"/><path fill="#479ece" d="M 483.335938 258.773438 C 483.417969 258.855469 483.585938 258.855469 483.667969 258.855469 C 484 258.855469 484.332031 258.6875 484.496094 258.273438 C 484.828125 257.445312 485.242188 256.53125 485.574219 255.785156 C 485.738281 255.289062 485.574219 254.792969 485.078125 254.542969 C 484.578125 254.375 484.082031 254.542969 483.835938 255.039062 C 483.503906 255.871094 483.089844 256.78125 482.757812 257.609375 C 482.589844 258.109375 482.839844 258.605469 483.335938 258.773438 Z M 483.335938 258.773438 " fill-opacity="1" fill-rule="nonzero"/><path fill="#479ece" d="M 624.476562 162.828125 C 625.386719 162.828125 626.300781 162.746094 627.210938 162.746094 C 627.707031 162.746094 628.121094 162.332031 628.121094 161.832031 C 628.121094 161.335938 627.707031 160.921875 627.210938 160.921875 C 626.300781 160.921875 625.386719 160.921875 624.476562 161.003906 C 623.980469 161.003906 623.566406 161.417969 623.566406 161.914062 C 623.566406 162.414062 623.980469 162.828125 624.476562 162.828125 Z M 624.476562 162.828125 " fill-opacity="1" fill-rule="nonzero"/><path fill="#479ece" d="M 715.640625 189.53125 C 716.386719 190.027344 717.214844 190.609375 717.878906 191.105469 C 718.042969 191.1875 718.210938 191.269531 718.457031 191.269531 C 718.789062 191.269531 719.039062 191.1875 719.203125 190.9375 C 719.535156 190.523438 719.371094 189.945312 718.957031 189.613281 C 718.210938 189.03125 717.382812 188.535156 716.71875 188.035156 C 716.304688 187.707031 715.722656 187.871094 715.390625 188.285156 C 715.0625 188.699219 715.226562 189.363281 715.640625 189.53125 Z M 715.640625 189.53125 " fill-opacity="1" fill-rule="nonzero"/><path fill="#479ece" d="M 728.820312 199.5625 C 728.984375 199.648438 729.148438 199.8125 729.398438 199.8125 C 729.648438 199.8125 729.894531 199.730469 730.0625 199.480469 C 730.394531 199.148438 730.394531 198.484375 729.980469 198.152344 C 729.234375 197.574219 728.570312 196.992188 727.824219 196.328125 C 727.492188 195.996094 726.828125 196.082031 726.496094 196.414062 C 726.167969 196.746094 726.25 197.40625 726.582031 197.738281 C 727.410156 198.402344 728.15625 198.984375 728.820312 199.5625 Z M 728.820312 199.5625 " fill-opacity="1" fill-rule="nonzero"/><path fill="#479ece" d="M 748.210938 219.132812 C 748.378906 219.382812 748.625 219.464844 748.957031 219.464844 C 749.125 219.464844 749.371094 219.382812 749.539062 219.300781 C 749.871094 218.96875 749.953125 218.386719 749.621094 217.972656 C 749.039062 217.226562 748.460938 216.5625 747.796875 215.816406 C 747.464844 215.484375 746.886719 215.402344 746.472656 215.734375 C 746.140625 216.066406 746.058594 216.644531 746.386719 217.0625 C 746.96875 217.808594 747.632812 218.46875 748.210938 219.132812 Z M 748.210938 219.132812 " fill-opacity="1" fill-rule="nonzero"/><path fill="#479ece" d="M 571.105469 463.597656 C 570.273438 463.265625 569.363281 462.933594 568.535156 462.519531 C 568.035156 462.351562 567.539062 462.519531 567.292969 463.015625 C 567.125 463.511719 567.292969 464.011719 567.789062 464.257812 C 568.617188 464.589844 569.527344 465.003906 570.359375 465.335938 C 570.441406 465.421875 570.605469 465.421875 570.6875 465.421875 C 571.019531 465.421875 571.433594 465.171875 571.519531 464.839844 C 571.765625 464.34375 571.601562 463.84375 571.105469 463.597656 Z M 571.105469 463.597656 " fill-opacity="1" fill-rule="nonzero"/><path fill="#479ece" d="M 703.871094 182.398438 C 704.703125 182.8125 705.445312 183.308594 706.277344 183.726562 C 706.359375 183.808594 706.609375 183.808594 706.773438 183.808594 C 707.105469 183.808594 707.351562 183.640625 707.601562 183.394531 C 707.851562 182.980469 707.683594 182.398438 707.269531 182.066406 C 706.441406 181.570312 705.695312 181.152344 704.785156 180.738281 C 704.371094 180.492188 703.789062 180.65625 703.542969 181.070312 C 703.292969 181.484375 703.457031 182.148438 703.871094 182.398438 Z M 703.871094 182.398438 " fill-opacity="1" fill-rule="nonzero"/><path fill="#479ece" d="M 779.207031 280.082031 C 779.289062 280.5 779.703125 280.746094 780.121094 280.746094 C 780.203125 280.746094 780.203125 280.746094 780.367188 280.746094 C 780.867188 280.664062 781.195312 280.167969 781.03125 279.667969 C 780.78125 278.757812 780.535156 277.84375 780.285156 276.933594 C 780.203125 276.433594 779.703125 276.101562 779.207031 276.269531 C 778.710938 276.433594 778.378906 276.847656 778.542969 277.347656 C 778.792969 278.257812 778.960938 279.171875 779.207031 280.082031 Z M 779.207031 280.082031 " fill-opacity="1" fill-rule="nonzero"/><path fill="#479ece" d="M 756.5 230.164062 C 756.664062 230.410156 756.996094 230.496094 757.246094 230.496094 C 757.410156 230.496094 757.578125 230.410156 757.824219 230.328125 C 758.238281 229.996094 758.40625 229.5 758.074219 229 C 757.492188 228.253906 756.996094 227.425781 756.5 226.761719 C 756.167969 226.347656 755.671875 226.265625 755.171875 226.597656 C 754.757812 226.929688 754.675781 227.425781 755.007812 227.925781 C 755.503906 228.671875 756.003906 229.417969 756.5 230.164062 Z M 756.5 230.164062 " fill-opacity="1" fill-rule="nonzero"/><path fill="#479ece" d="M 782.027344 293.515625 C 782.109375 293.933594 782.523438 294.347656 782.9375 294.347656 C 783.019531 294.347656 783.019531 294.347656 783.019531 294.347656 C 783.515625 294.261719 783.847656 293.765625 783.765625 293.269531 C 783.683594 292.355469 783.433594 291.445312 783.269531 290.53125 C 783.1875 290.035156 782.6875 289.703125 782.191406 289.785156 C 781.695312 289.867188 781.363281 290.367188 781.445312 290.863281 C 781.695312 291.777344 781.859375 292.605469 782.027344 293.515625 Z M 782.027344 293.515625 " fill-opacity="1" fill-rule="nonzero"/><path fill="#479ece" d="M 678.679688 171.121094 C 679.507812 171.453125 680.417969 171.699219 681.246094 172.03125 C 681.328125 172.117188 681.414062 172.117188 681.578125 172.117188 C 681.910156 172.117188 682.324219 171.867188 682.40625 171.535156 C 682.574219 171.039062 682.324219 170.539062 681.828125 170.375 C 681 170.042969 680.003906 169.792969 679.175781 169.460938 C 678.679688 169.296875 678.179688 169.542969 678.015625 170.042969 C 678.015625 170.457031 678.261719 170.953125 678.679688 171.121094 Z M 678.679688 171.121094 " fill-opacity="1" fill-rule="nonzero"/><path fill="#479ece" d="M 770.089844 254.046875 C 770.257812 254.375 770.589844 254.625 770.921875 254.625 C 771.003906 254.625 771.167969 254.625 771.25 254.542969 C 771.75 254.375 771.914062 253.796875 771.664062 253.300781 C 771.335938 252.46875 770.835938 251.640625 770.503906 250.8125 C 770.257812 250.394531 769.675781 250.148438 769.261719 250.394531 C 768.847656 250.644531 768.597656 251.226562 768.847656 251.640625 C 769.261719 252.386719 769.675781 253.300781 770.089844 254.046875 Z M 770.089844 254.046875 " fill-opacity="1" fill-rule="nonzero"/><path fill="#479ece" d="M 763.792969 241.855469 C 763.957031 242.1875 764.289062 242.351562 764.621094 242.351562 C 764.789062 242.351562 764.953125 242.269531 765.035156 242.269531 C 765.449219 242.019531 765.617188 241.441406 765.367188 241.027344 C 764.953125 240.195312 764.457031 239.449219 763.957031 238.621094 C 763.710938 238.207031 763.128906 238.039062 762.632812 238.289062 C 762.21875 238.539062 762.050781 239.117188 762.300781 239.617188 C 762.882812 240.195312 763.296875 241.027344 763.792969 241.855469 Z M 763.792969 241.855469 " fill-opacity="1" fill-rule="nonzero"/><path fill="#479ece" d="M 775.230469 266.898438 C 775.3125 267.230469 775.726562 267.480469 776.058594 267.480469 C 776.140625 267.480469 776.222656 267.480469 776.390625 267.394531 C 776.886719 267.230469 777.136719 266.734375 776.96875 266.234375 C 776.636719 265.40625 776.390625 264.410156 776.058594 263.582031 C 775.894531 263.082031 775.3125 262.835938 774.898438 263 C 774.402344 263.167969 774.152344 263.746094 774.316406 264.160156 C 774.566406 265.15625 774.898438 265.984375 775.230469 266.898438 Z M 775.230469 266.898438 " fill-opacity="1" fill-rule="nonzero"/><path fill="#479ece" d="M 545.742188 186.210938 C 545.910156 186.210938 546.074219 186.128906 546.242188 186.128906 C 547.070312 185.632812 547.816406 185.132812 548.5625 184.71875 C 548.976562 184.472656 549.140625 183.890625 548.890625 183.394531 C 548.644531 182.980469 548.0625 182.8125 547.566406 183.0625 C 546.738281 183.558594 545.992188 184.058594 545.164062 184.554688 C 544.75 184.804688 544.582031 185.382812 544.832031 185.882812 C 545.082031 186.046875 545.410156 186.210938 545.742188 186.210938 Z M 545.742188 186.210938 " fill-opacity="1" fill-rule="nonzero"/><path fill="#479ece" d="M 570.441406 173.773438 C 570.523438 173.773438 570.6875 173.773438 570.773438 173.691406 C 571.601562 173.359375 572.511719 173.027344 573.339844 172.695312 C 573.839844 172.53125 574.085938 171.949219 573.921875 171.535156 C 573.753906 171.039062 573.175781 170.789062 572.761719 170.953125 C 571.933594 171.285156 571.019531 171.617188 570.191406 171.949219 C 569.695312 172.117188 569.527344 172.695312 569.695312 173.109375 C 569.777344 173.523438 570.027344 173.773438 570.441406 173.773438 Z M 570.441406 173.773438 " fill-opacity="1" fill-rule="nonzero"/><path fill="#479ece" d="M 557.84375 179.414062 C 557.925781 179.414062 558.175781 179.328125 558.257812 179.328125 C 559.085938 178.914062 559.914062 178.5 560.742188 178.085938 C 561.160156 177.835938 561.40625 177.257812 561.160156 176.84375 C 560.910156 176.425781 560.328125 176.179688 559.914062 176.425781 C 559.085938 176.84375 558.257812 177.257812 557.429688 177.671875 C 557.015625 177.921875 556.847656 178.5 557.015625 178.914062 C 557.179688 179.246094 557.429688 179.414062 557.84375 179.414062 Z M 557.84375 179.414062 " fill-opacity="1" fill-rule="nonzero"/><path fill="#479ece" d="M 522.953125 202.550781 C 523.117188 202.714844 523.367188 202.878906 523.613281 202.878906 C 523.863281 202.878906 524.03125 202.796875 524.195312 202.632812 C 524.859375 202.050781 525.519531 201.386719 526.265625 200.808594 C 526.597656 200.476562 526.679688 199.894531 526.351562 199.480469 C 526.019531 199.148438 525.4375 199.066406 525.023438 199.398438 C 524.359375 199.976562 523.613281 200.640625 522.953125 201.222656 C 522.621094 201.554688 522.539062 202.132812 522.953125 202.550781 Z M 522.953125 202.550781 " fill-opacity="1" fill-rule="nonzero"/><path fill="#479ece" d="M 534.304688 194.007812 C 534.472656 194.007812 534.636719 193.925781 534.886719 193.839844 C 535.632812 193.261719 536.378906 192.765625 537.125 192.183594 C 537.539062 191.851562 537.621094 191.355469 537.289062 190.855469 C 536.957031 190.441406 536.460938 190.359375 535.964844 190.691406 C 535.21875 191.269531 534.472656 191.769531 533.726562 192.347656 C 533.3125 192.679688 533.230469 193.179688 533.558594 193.675781 C 533.726562 193.839844 534.058594 194.007812 534.304688 194.007812 Z M 534.304688 194.007812 " fill-opacity="1" fill-rule="nonzero"/><path fill="#479ece" d="M 651.992188 164.570312 C 652.902344 164.652344 653.816406 164.902344 654.726562 164.984375 C 654.808594 164.984375 654.808594 164.984375 654.890625 164.984375 C 655.304688 164.984375 655.722656 164.652344 655.804688 164.238281 C 655.886719 163.738281 655.554688 163.242188 655.058594 163.160156 C 654.144531 162.992188 653.234375 162.828125 652.324219 162.746094 C 651.824219 162.660156 651.328125 162.992188 651.246094 163.574219 C 651.164062 163.988281 651.496094 164.488281 651.992188 164.570312 Z M 651.992188 164.570312 " fill-opacity="1" fill-rule="nonzero"/><path fill="#479ece" d="M 665.5 167.222656 C 666.414062 167.472656 667.324219 167.636719 668.152344 167.886719 C 668.234375 167.886719 668.316406 167.886719 668.402344 167.886719 C 668.816406 167.886719 669.230469 167.636719 669.230469 167.222656 C 669.3125 166.726562 669.0625 166.226562 668.566406 166.144531 C 667.65625 165.894531 666.742188 165.648438 665.832031 165.480469 C 665.335938 165.398438 664.835938 165.648438 664.753906 166.144531 C 664.671875 166.640625 665.003906 167.140625 665.5 167.222656 Z M 665.5 167.222656 " fill-opacity="1" fill-rule="nonzero"/><path fill="#479ece" d="M 638.316406 163.078125 C 639.226562 163.160156 640.140625 163.160156 641.050781 163.242188 L 641.132812 163.242188 C 641.632812 163.242188 641.964844 162.910156 642.046875 162.414062 C 642.128906 161.914062 641.714844 161.5 641.21875 161.417969 C 640.304688 161.335938 639.394531 161.335938 638.484375 161.253906 C 637.984375 161.253906 637.570312 161.585938 637.488281 162.082031 C 637.40625 162.578125 637.820312 163.078125 638.316406 163.078125 Z M 638.316406 163.078125 " fill-opacity="1" fill-rule="nonzero"/><path fill="#479ece" d="M 596.960938 165.894531 C 597.042969 165.894531 597.042969 165.894531 597.125 165.894531 C 598.039062 165.730469 598.949219 165.5625 599.863281 165.316406 C 600.359375 165.234375 600.691406 164.734375 600.609375 164.238281 C 600.523438 163.738281 600.027344 163.410156 599.53125 163.492188 C 598.617188 163.65625 597.707031 163.824219 596.796875 164.070312 C 596.296875 164.15625 595.964844 164.652344 596.050781 165.148438 C 596.214844 165.5625 596.546875 165.894531 596.960938 165.894531 Z M 596.960938 165.894531 " fill-opacity="1" fill-rule="nonzero"/><path fill="#479ece" d="M 610.71875 163.738281 C 610.800781 163.738281 610.800781 163.738281 610.800781 163.738281 C 611.714844 163.65625 612.625 163.574219 613.535156 163.410156 C 614.035156 163.324219 614.367188 162.910156 614.367188 162.414062 C 614.28125 161.914062 613.867188 161.585938 613.371094 161.585938 C 612.460938 161.667969 611.546875 161.75 610.636719 161.914062 C 610.136719 162 609.808594 162.414062 609.808594 162.992188 C 609.808594 163.410156 610.222656 163.738281 610.71875 163.738281 Z M 610.71875 163.738281 " fill-opacity="1" fill-rule="nonzero"/><path fill="#479ece" d="M 583.535156 169.214844 C 583.617188 169.214844 583.699219 169.214844 583.785156 169.128906 C 584.613281 168.882812 585.605469 168.632812 586.4375 168.382812 C 586.933594 168.300781 587.265625 167.804688 587.015625 167.304688 C 586.933594 166.808594 586.351562 166.476562 585.9375 166.726562 C 585.027344 166.972656 584.117188 167.222656 583.203125 167.554688 C 582.707031 167.636719 582.457031 168.21875 582.625 168.714844 C 582.789062 168.964844 583.121094 169.214844 583.535156 169.214844 Z M 583.535156 169.214844 " fill-opacity="1" fill-rule="nonzero"/><path fill="#479ece" d="M 691.523438 176.179688 C 692.351562 176.511719 693.179688 176.925781 694.011719 177.339844 C 694.09375 177.421875 694.257812 177.421875 694.339844 177.421875 C 694.671875 177.421875 695.003906 177.257812 695.171875 176.84375 C 695.417969 176.34375 695.171875 175.847656 694.757812 175.597656 C 693.925781 175.265625 693.015625 174.769531 692.269531 174.4375 C 691.773438 174.273438 691.273438 174.4375 691.027344 174.933594 C 690.859375 175.433594 691.109375 176.011719 691.523438 176.179688 Z M 691.523438 176.179688 " fill-opacity="1" fill-rule="nonzero"/><path fill="#479ece" d="M 715.808594 447.507812 C 715.0625 448.007812 714.230469 448.585938 713.570312 449.085938 C 713.15625 449.414062 712.988281 449.914062 713.320312 450.410156 C 713.484375 450.660156 713.816406 450.824219 714.148438 450.824219 C 714.316406 450.824219 714.480469 450.742188 714.648438 450.742188 C 715.476562 450.246094 716.222656 449.664062 716.96875 449.167969 C 717.382812 448.835938 717.546875 448.335938 717.214844 447.839844 C 716.882812 447.34375 716.304688 447.175781 715.808594 447.507812 Z M 715.808594 447.507812 " fill-opacity="1" fill-rule="nonzero"/><path fill="#479ece" d="M 691.855469 460.941406 C 691.027344 461.273438 690.199219 461.6875 689.367188 462.019531 C 688.871094 462.1875 688.707031 462.765625 688.871094 463.265625 C 688.953125 463.597656 689.367188 463.84375 689.699219 463.84375 C 689.785156 463.84375 689.949219 463.84375 690.03125 463.761719 C 690.859375 463.429688 691.773438 463.015625 692.519531 462.683594 C 693.015625 462.519531 693.179688 461.9375 693.015625 461.441406 C 692.851562 460.941406 692.269531 460.777344 691.855469 460.941406 Z M 691.855469 460.941406 " fill-opacity="1" fill-rule="nonzero"/><path fill="#479ece" d="M 726.914062 439.214844 C 726.167969 439.796875 725.503906 440.378906 724.757812 440.957031 C 724.34375 441.289062 724.261719 441.871094 724.675781 442.285156 C 724.839844 442.53125 725.089844 442.617188 725.421875 442.617188 C 725.585938 442.617188 725.835938 442.53125 726 442.449219 C 726.746094 441.871094 727.492188 441.289062 728.15625 440.707031 C 728.488281 440.378906 728.570312 439.796875 728.238281 439.382812 C 727.90625 438.96875 727.242188 438.882812 726.914062 439.214844 Z M 726.914062 439.214844 " fill-opacity="1" fill-rule="nonzero"/><path fill="#479ece" d="M 704.121094 454.722656 C 703.292969 455.136719 702.546875 455.550781 701.71875 456.050781 C 701.304688 456.296875 701.136719 456.878906 701.386719 457.292969 C 701.550781 457.625 701.882812 457.792969 702.214844 457.792969 C 702.296875 457.792969 702.546875 457.707031 702.628906 457.707031 C 703.457031 457.292969 704.285156 456.878906 705.117188 456.382812 C 705.53125 456.132812 705.695312 455.550781 705.445312 455.136719 C 705.117188 454.640625 704.617188 454.472656 704.121094 454.722656 Z M 704.121094 454.722656 " fill-opacity="1" fill-rule="nonzero"/><path fill="#479ece" d="M 735.117188 433.246094 C 735.28125 433.410156 735.53125 433.578125 735.78125 433.578125 C 736.027344 433.578125 736.195312 433.496094 736.359375 433.328125 C 737.023438 432.746094 737.6875 432 738.347656 431.421875 C 738.679688 431.089844 738.679688 430.507812 738.347656 430.09375 C 738.019531 429.761719 737.4375 429.761719 737.023438 430.09375 C 736.359375 430.675781 735.699219 431.421875 735.035156 432 C 734.785156 432.332031 734.785156 432.914062 735.117188 433.246094 Z M 735.117188 433.246094 " fill-opacity="1" fill-rule="nonzero"/><path fill="#479ece" d="M 770.257812 384.902344 C 769.84375 384.652344 769.261719 384.902344 769.015625 385.316406 C 768.683594 386.144531 768.183594 386.972656 767.769531 387.804688 C 767.523438 388.21875 767.6875 388.796875 768.183594 389.046875 C 768.269531 389.128906 768.433594 389.128906 768.597656 389.128906 C 768.929688 389.128906 769.261719 388.964844 769.429688 388.632812 C 769.84375 387.804688 770.257812 386.972656 770.671875 386.144531 C 770.921875 385.648438 770.671875 385.066406 770.257812 384.902344 Z M 770.257812 384.902344 " fill-opacity="1" fill-rule="nonzero"/><path fill="#479ece" d="M 746.554688 419.976562 C 745.972656 420.640625 745.3125 421.386719 744.730469 422.050781 C 744.398438 422.382812 744.398438 423.046875 744.8125 423.378906 C 744.980469 423.542969 745.144531 423.625 745.394531 423.625 C 745.640625 423.625 745.890625 423.542969 746.058594 423.292969 C 746.636719 422.632812 747.300781 421.886719 747.878906 421.222656 C 748.210938 420.890625 748.210938 420.226562 747.796875 419.894531 C 747.464844 419.5625 746.886719 419.5625 746.554688 419.976562 Z M 746.554688 419.976562 " fill-opacity="1" fill-rule="nonzero"/><path fill="#479ece" d="M 756.332031 408.867188 C 755.917969 408.535156 755.339844 408.699219 755.007812 409.03125 C 754.425781 409.777344 753.929688 410.523438 753.433594 411.269531 C 753.101562 411.683594 753.183594 412.265625 753.597656 412.597656 C 753.765625 412.679688 753.929688 412.761719 754.179688 412.761719 C 754.511719 412.761719 754.757812 412.679688 754.925781 412.429688 C 755.503906 411.683594 756.003906 410.9375 756.582031 410.191406 C 756.914062 409.777344 756.746094 409.199219 756.332031 408.867188 Z M 756.332031 408.867188 " fill-opacity="1" fill-rule="nonzero"/><path fill="#479ece" d="M 763.792969 397.257812 C 763.378906 397.007812 762.796875 397.171875 762.464844 397.589844 C 761.96875 398.417969 761.554688 399.164062 761.058594 399.992188 C 760.808594 400.40625 760.976562 400.988281 761.390625 401.320312 C 761.472656 401.402344 761.71875 401.402344 761.886719 401.402344 C 762.21875 401.402344 762.464844 401.238281 762.714844 400.988281 C 763.210938 400.160156 763.710938 399.414062 764.125 398.582031 C 764.457031 398.003906 764.289062 397.503906 763.792969 397.257812 Z M 763.792969 397.257812 " fill-opacity="1" fill-rule="nonzero"/><path fill="#479ece" d="M 611.132812 473.546875 C 610.222656 473.464844 609.308594 473.382812 608.398438 473.214844 C 607.902344 473.132812 607.402344 473.546875 607.320312 474.042969 C 607.238281 474.542969 607.652344 475.039062 608.148438 475.121094 C 609.0625 475.207031 609.972656 475.371094 610.882812 475.453125 C 610.96875 475.453125 610.96875 475.453125 610.96875 475.453125 C 611.464844 475.453125 611.796875 475.121094 611.878906 474.625 C 612.042969 474.042969 611.628906 473.628906 611.132812 473.546875 Z M 611.132812 473.546875 " fill-opacity="1" fill-rule="nonzero"/><path fill="#479ece" d="M 597.542969 471.472656 C 596.628906 471.308594 595.71875 471.140625 594.804688 470.894531 C 594.308594 470.808594 593.8125 471.058594 593.730469 471.558594 C 593.644531 472.054688 593.894531 472.550781 594.390625 472.636719 C 595.304688 472.800781 596.214844 472.964844 597.125 473.214844 C 597.210938 473.214844 597.210938 473.214844 597.292969 473.214844 C 597.707031 473.214844 598.121094 472.882812 598.203125 472.46875 C 598.371094 472.054688 598.039062 471.558594 597.542969 471.472656 Z M 597.542969 471.472656 " fill-opacity="1" fill-rule="nonzero"/><path fill="#479ece" d="M 665.832031 469.898438 C 665.003906 470.148438 664.007812 470.3125 663.097656 470.480469 C 662.601562 470.5625 662.269531 471.058594 662.433594 471.558594 C 662.515625 471.972656 662.929688 472.304688 663.34375 472.304688 C 663.429688 472.304688 663.429688 472.304688 663.511719 472.304688 C 664.421875 472.136719 665.335938 471.886719 666.246094 471.640625 C 666.742188 471.558594 667.074219 471.058594 666.910156 470.5625 C 666.828125 470.0625 666.328125 469.816406 665.832031 469.898438 Z M 665.832031 469.898438 " fill-opacity="1" fill-rule="nonzero"/><path fill="#479ece" d="M 584.117188 468.15625 C 583.285156 467.90625 582.292969 467.578125 581.464844 467.328125 C 580.964844 467.160156 580.46875 467.410156 580.304688 467.90625 C 580.21875 468.40625 580.386719 468.902344 580.882812 469.070312 C 581.710938 469.402344 582.707031 469.648438 583.535156 469.898438 C 583.617188 469.898438 583.699219 469.980469 583.785156 469.980469 C 584.117188 469.980469 584.53125 469.734375 584.613281 469.316406 C 584.945312 468.820312 584.613281 468.324219 584.117188 468.15625 Z M 584.117188 468.15625 " fill-opacity="1" fill-rule="nonzero"/><path fill="#479ece" d="M 652.324219 472.636719 C 651.410156 472.71875 650.5 472.882812 649.589844 473.050781 C 649.089844 473.132812 648.757812 473.628906 648.757812 474.128906 C 648.84375 474.625 649.171875 474.957031 649.671875 474.957031 C 649.753906 474.957031 649.753906 474.957031 649.753906 474.957031 C 650.664062 474.875 651.578125 474.707031 652.488281 474.542969 C 652.984375 474.460938 653.316406 473.960938 653.316406 473.464844 C 653.316406 472.882812 652.820312 472.550781 652.324219 472.636719 Z M 652.324219 472.636719 " fill-opacity="1" fill-rule="nonzero"/><path fill="#479ece" d="M 624.890625 474.460938 C 623.980469 474.460938 623.066406 474.375 622.15625 474.375 C 621.660156 474.375 621.242188 474.707031 621.160156 475.207031 C 621.160156 475.703125 621.492188 476.117188 621.988281 476.199219 C 622.902344 476.285156 623.8125 476.285156 624.726562 476.285156 C 625.222656 476.285156 625.636719 475.867188 625.636719 475.371094 C 625.800781 474.875 625.386719 474.460938 624.890625 474.460938 Z M 624.890625 474.460938 " fill-opacity="1" fill-rule="nonzero"/><path fill="#479ece" d="M 638.648438 474.128906 C 637.738281 474.210938 636.824219 474.210938 635.914062 474.292969 C 635.417969 474.292969 635 474.707031 635.085938 475.289062 C 635.085938 475.785156 635.5 476.117188 635.996094 476.117188 C 635.996094 476.117188 635.996094 476.117188 636.078125 476.117188 C 636.992188 476.035156 637.902344 476.035156 638.8125 475.953125 C 639.3125 475.867188 639.726562 475.453125 639.644531 474.957031 C 639.558594 474.460938 639.226562 474.042969 638.648438 474.128906 Z M 638.648438 474.128906 " fill-opacity="1" fill-rule="nonzero"/><path fill="#479ece" d="M 679.09375 466 C 678.261719 466.332031 677.351562 466.582031 676.441406 466.832031 C 675.941406 466.996094 675.695312 467.492188 675.859375 467.992188 C 675.941406 468.324219 676.355469 468.570312 676.6875 468.570312 C 676.773438 468.570312 676.855469 468.570312 677.019531 468.488281 C 677.847656 468.15625 678.84375 467.90625 679.671875 467.660156 C 680.167969 467.492188 680.417969 466.996094 680.253906 466.5 C 680.085938 466.082031 679.589844 465.835938 679.09375 466 Z M 679.09375 466 " fill-opacity="1" fill-rule="nonzero"/><path fill="#479ece" d="M 779.703125 358.863281 C 779.207031 358.777344 778.710938 359.027344 778.628906 359.527344 C 778.378906 360.355469 778.128906 361.351562 777.882812 362.179688 C 777.796875 362.675781 777.964844 363.175781 778.460938 363.339844 C 778.542969 363.339844 778.628906 363.421875 778.710938 363.421875 C 779.042969 363.421875 779.457031 363.175781 779.539062 362.757812 C 779.789062 361.847656 780.035156 360.933594 780.285156 360.023438 C 780.449219 359.441406 780.203125 358.945312 779.703125 358.863281 Z M 779.703125 358.863281 " fill-opacity="1" fill-rule="nonzero"/><path fill="#479ece" d="M 783.351562 304.464844 C 783.433594 305.375 783.515625 306.289062 783.601562 307.199219 C 783.683594 307.699219 784.015625 308.027344 784.511719 308.027344 L 784.59375 308.027344 C 785.09375 307.945312 785.421875 307.53125 785.421875 307.035156 C 785.339844 306.121094 785.339844 305.210938 785.175781 304.296875 C 785.09375 303.800781 784.675781 303.46875 784.179688 303.46875 C 783.683594 303.550781 783.269531 303.964844 783.351562 304.464844 Z M 783.351562 304.464844 " fill-opacity="1" fill-rule="nonzero"/><path fill="#479ece" d="M 784.429688 331.578125 C 783.933594 331.496094 783.433594 331.910156 783.433594 332.410156 C 783.351562 333.320312 783.269531 334.234375 783.1875 335.144531 C 783.101562 335.644531 783.515625 336.140625 784.015625 336.140625 C 784.097656 336.140625 784.097656 336.140625 784.097656 336.140625 C 784.59375 336.140625 784.925781 335.808594 785.007812 335.3125 C 785.09375 334.398438 785.175781 333.488281 785.257812 332.574219 C 785.257812 332.078125 784.925781 331.578125 784.429688 331.578125 Z M 784.429688 331.578125 " fill-opacity="1" fill-rule="nonzero"/><path fill="#479ece" d="M 775.5625 372.046875 C 775.0625 371.882812 774.566406 372.128906 774.402344 372.628906 C 774.070312 373.457031 773.738281 374.367188 773.40625 375.199219 C 773.242188 375.695312 773.488281 376.191406 773.988281 376.359375 C 774.070312 376.441406 774.234375 376.441406 774.316406 376.441406 C 774.648438 376.441406 775.0625 376.191406 775.148438 375.863281 C 775.476562 375.03125 775.808594 374.121094 776.140625 373.207031 C 776.308594 372.792969 776.058594 372.296875 775.5625 372.046875 Z M 775.5625 372.046875 " fill-opacity="1" fill-rule="nonzero"/><path fill="#479ece" d="M 782.6875 345.34375 C 782.191406 345.261719 781.695312 345.59375 781.609375 346.089844 C 781.445312 347.003906 781.28125 347.914062 781.113281 348.828125 C 781.03125 349.324219 781.363281 349.824219 781.859375 349.90625 C 781.941406 349.90625 781.941406 349.90625 782.027344 349.90625 C 782.441406 349.90625 782.855469 349.574219 782.9375 349.160156 C 783.101562 348.246094 783.269531 347.335938 783.433594 346.421875 C 783.515625 345.84375 783.1875 345.34375 782.6875 345.34375 Z M 782.6875 345.34375 " fill-opacity="1" fill-rule="nonzero"/><path fill="#479ece" d="M 674.453125 455.96875 L 675.03125 457.707031 C 712.160156 445.1875 742.160156 418.984375 759.648438 383.824219 L 757.992188 382.992188 C 740.835938 417.65625 711.164062 443.609375 674.453125 455.96875 Z M 674.453125 455.96875 " fill-opacity="1" fill-rule="nonzero"/><path fill="#479ece" d="M 563.894531 448.421875 C 529.25 431.171875 503.394531 401.484375 491.042969 364.832031 L 489.304688 365.414062 C 501.820312 402.5625 528.007812 432.582031 563.148438 450.078125 Z M 563.894531 448.421875 " fill-opacity="1" fill-rule="nonzero"/><path fill="#479ece" d="M 674.453125 455.96875 C 637.738281 468.324219 598.453125 465.667969 563.808594 448.503906 L 562.980469 450.164062 C 598.039062 467.578125 637.902344 470.230469 675.03125 457.792969 Z M 674.453125 455.96875 " fill-opacity="1" fill-rule="nonzero"/><path fill="#479ece" d="M 490.960938 364.914062 C 478.613281 328.179688 481.265625 288.875 498.421875 254.210938 L 496.761719 253.382812 C 479.359375 288.457031 476.707031 328.261719 489.136719 365.414062 Z M 490.960938 364.914062 " fill-opacity="1" fill-rule="nonzero"/><path fill="#479ece" d="M 496.847656 253.300781 L 498.503906 254.128906 C 515.742188 219.464844 545.410156 193.59375 582.042969 181.238281 L 581.464844 179.496094 C 544.335938 191.933594 514.25 218.222656 496.847656 253.300781 Z M 496.847656 253.300781 " fill-opacity="1" fill-rule="nonzero"/><path fill="#479ece" d="M 692.683594 188.699219 L 693.511719 187.042969 C 658.457031 169.628906 618.59375 166.972656 581.464844 179.496094 L 582.042969 181.238281 C 618.675781 168.882812 658.042969 171.453125 692.683594 188.699219 Z M 692.683594 188.699219 " fill-opacity="1" fill-rule="nonzero"/><path fill="#479ece" d="M 503.890625 273.199219 C 503.394531 273.035156 502.894531 273.285156 502.730469 273.78125 C 498.75 284.976562 496.347656 296.667969 495.519531 308.609375 C 495.4375 309.105469 495.851562 309.523438 496.347656 309.605469 L 496.429688 309.605469 C 496.929688 309.605469 497.261719 309.273438 497.34375 308.777344 C 498.171875 297 500.574219 285.472656 504.554688 274.445312 C 504.636719 273.863281 504.304688 273.285156 503.890625 273.199219 Z M 503.890625 273.199219 " fill-opacity="1" fill-rule="nonzero"/><path fill="#479ece" d="M 499.332031 343.6875 C 499.25 343.1875 498.75 342.859375 498.253906 342.941406 C 497.757812 343.023438 497.425781 343.519531 497.507812 344.019531 C 499.746094 355.710938 503.640625 366.988281 509.027344 377.6875 C 509.195312 378.019531 509.527344 378.183594 509.859375 378.183594 C 509.941406 378.183594 510.1875 378.101562 510.273438 378.101562 C 510.6875 377.851562 510.851562 377.269531 510.6875 376.855469 C 505.382812 366.324219 501.570312 355.128906 499.332031 343.6875 Z M 499.332031 343.6875 " fill-opacity="1" fill-rule="nonzero"/><path fill="#479ece" d="M 556.019531 430.175781 C 556.1875 430.261719 556.351562 430.261719 556.515625 430.261719 C 556.847656 430.261719 557.097656 430.175781 557.347656 429.84375 C 557.59375 429.429688 557.429688 428.851562 557.097656 428.519531 C 549.390625 423.542969 542.179688 417.65625 535.632812 411.269531 L 534.304688 412.597656 C 540.9375 419.230469 548.148438 425.035156 556.019531 430.175781 Z M 556.019531 430.175781 " fill-opacity="1" fill-rule="nonzero"/><path fill="#479ece" d="M 623.316406 449.414062 C 611.546875 449 599.863281 447.011719 588.757812 443.527344 C 588.257812 443.445312 587.761719 443.609375 587.597656 444.109375 C 587.511719 444.605469 587.679688 445.105469 588.175781 445.269531 C 599.449219 448.835938 611.300781 450.824219 623.234375 451.324219 C 623.234375 451.324219 623.234375 451.324219 623.316406 451.324219 C 623.8125 451.324219 624.226562 450.992188 624.226562 450.492188 C 624.226562 449.832031 623.8125 449.414062 623.316406 449.414062 Z M 623.316406 449.414062 " fill-opacity="1" fill-rule="nonzero"/><path fill="#479ece" d="M 530.328125 405.796875 C 529.996094 405.464844 529.417969 405.382812 529.003906 405.714844 C 528.671875 406.046875 528.585938 406.625 528.917969 407.042969 C 530.660156 408.949219 532.398438 410.773438 534.222656 412.597656 L 535.550781 411.269531 C 533.808594 409.527344 532.070312 407.703125 530.328125 405.796875 Z M 530.328125 405.796875 " fill-opacity="1" fill-rule="nonzero"/><path fill="#479ece" d="M 690.859375 433.496094 C 680.5 439.132812 669.5625 443.363281 658.125 446.015625 C 657.628906 446.097656 657.296875 446.597656 657.460938 447.09375 C 657.542969 447.507812 657.957031 447.839844 658.375 447.839844 C 658.457031 447.839844 658.457031 447.839844 658.539062 447.839844 C 670.058594 445.105469 681.246094 440.792969 691.691406 435.152344 C 692.105469 434.902344 692.269531 434.324219 692.019531 433.910156 C 691.9375 433.410156 691.359375 433.246094 690.859375 433.496094 Z M 690.859375 433.496094 " fill-opacity="1" fill-rule="nonzero"/><path fill="#479ece" d="M 518.972656 242.105469 C 518.640625 242.519531 518.808594 243.097656 519.222656 243.429688 C 519.386719 243.515625 519.554688 243.597656 519.800781 243.597656 C 520.132812 243.597656 520.382812 243.515625 520.546875 243.265625 C 524.941406 236.960938 529.914062 231.074219 535.382812 225.601562 L 534.058594 224.273438 C 528.421875 229.75 523.449219 235.71875 518.972656 242.105469 Z M 518.972656 242.105469 " fill-opacity="1" fill-rule="nonzero"/><path fill="#479ece" d="M 573.425781 198.816406 C 573.507812 198.816406 573.671875 198.816406 573.753906 198.734375 C 584.445312 193.839844 595.71875 190.523438 607.320312 188.617188 C 607.816406 188.535156 608.148438 188.035156 608.066406 187.539062 C 607.984375 187.042969 607.488281 186.710938 606.988281 186.792969 C 595.222656 188.617188 583.785156 192.101562 572.925781 196.992188 C 572.429688 197.160156 572.265625 197.738281 572.511719 198.238281 C 572.761719 198.570312 573.175781 198.816406 573.425781 198.816406 Z M 573.425781 198.816406 " fill-opacity="1" fill-rule="nonzero"/><path fill="#479ece" d="M 544.335938 216.066406 C 544.003906 215.734375 543.421875 215.652344 543.007812 215.984375 C 539.859375 218.636719 536.875 221.371094 533.976562 224.273438 L 535.300781 225.601562 C 538.117188 222.78125 541.101562 220.046875 544.25 217.390625 C 544.582031 216.976562 544.582031 216.480469 544.335938 216.066406 Z M 544.335938 216.066406 " fill-opacity="1" fill-rule="nonzero"/><path fill="#479ece" d="M 628.289062 436.480469 L 628.289062 438.304688 C 661.273438 438.304688 691.191406 424.871094 712.824219 403.226562 L 711.496094 401.898438 C 690.113281 423.210938 660.695312 436.480469 628.289062 436.480469 Z M 628.289062 436.480469 " fill-opacity="1" fill-rule="nonzero"/><path fill="#479ece" d="M 628.289062 200.722656 L 628.289062 198.898438 C 595.304688 198.898438 565.386719 212.335938 543.753906 233.976562 L 545.082031 235.304688 C 566.378906 213.992188 595.800781 200.722656 628.289062 200.722656 Z M 628.289062 200.722656 " fill-opacity="1" fill-rule="nonzero"/><path fill="#479ece" d="M 711.496094 235.304688 L 712.824219 233.976562 C 691.191406 212.335938 661.273438 198.898438 628.289062 198.898438 L 628.289062 200.722656 C 660.695312 200.722656 690.113281 213.992188 711.496094 235.304688 Z M 711.496094 235.304688 " fill-opacity="1" fill-rule="nonzero"/><path fill="#479ece" d="M 745.972656 318.5625 L 747.796875 318.5625 C 747.796875 285.554688 734.371094 255.621094 712.742188 233.976562 L 711.414062 235.304688 C 732.796875 256.617188 745.972656 286.136719 745.972656 318.5625 Z M 745.972656 318.5625 " fill-opacity="1" fill-rule="nonzero"/><path fill="#479ece" d="M 545.082031 235.304688 L 543.753906 233.976562 C 522.125 255.621094 508.695312 285.554688 508.695312 318.5625 L 510.519531 318.5625 C 510.519531 286.136719 523.699219 256.617188 545.082031 235.304688 Z M 545.082031 235.304688 " fill-opacity="1" fill-rule="nonzero"/><path fill="#479ece" d="M 628.289062 436.480469 C 595.800781 436.480469 566.378906 423.292969 545.082031 401.898438 L 543.753906 403.226562 C 565.386719 424.871094 595.304688 438.304688 628.289062 438.304688 Z M 628.289062 436.480469 " fill-opacity="1" fill-rule="nonzero"/><path fill="#479ece" d="M 510.519531 318.5625 L 508.695312 318.5625 C 508.695312 351.566406 522.125 381.5 543.753906 403.144531 L 545.082031 401.816406 C 523.699219 380.589844 510.519531 351.066406 510.519531 318.5625 Z M 510.519531 318.5625 " fill-opacity="1" fill-rule="nonzero"/><path fill="#479ece" d="M 711.496094 401.898438 L 712.824219 403.226562 C 734.453125 381.582031 747.878906 351.648438 747.878906 318.644531 L 746.058594 318.644531 C 745.972656 351.066406 732.796875 380.589844 711.496094 401.898438 Z M 711.496094 401.898438 " fill-opacity="1" fill-rule="nonzero"/><path fill="#479ece" d="M 730.476562 348.082031 C 730.558594 347.585938 730.394531 347.085938 729.894531 346.921875 C 729.398438 346.839844 728.902344 347.003906 728.734375 347.5 C 727.492188 351.730469 726 355.875 724.261719 359.855469 L 726 360.601562 C 727.660156 356.539062 729.234375 352.394531 730.476562 348.082031 Z M 730.476562 348.082031 " fill-opacity="1" fill-rule="nonzero"/><path fill="#479ece" d="M 703.375 391.035156 C 700.722656 393.773438 697.824219 396.425781 694.921875 398.832031 C 691.359375 401.816406 687.546875 404.46875 683.652344 406.957031 C 683.234375 407.207031 683.070312 407.789062 683.320312 408.285156 C 683.566406 408.617188 684.066406 408.867188 684.394531 408.617188 C 684.480469 408.617188 684.480469 408.535156 684.480469 408.535156 C 688.457031 406.046875 692.269531 403.308594 695.917969 400.324219 C 698.898438 397.835938 701.800781 395.183594 704.617188 392.363281 C 704.949219 392.03125 704.949219 391.453125 704.617188 391.035156 C 704.285156 390.707031 703.707031 390.707031 703.375 391.035156 Z M 703.375 391.035156 " fill-opacity="1" fill-rule="nonzero"/><path fill="#479ece" d="M 574.335938 226.679688 C 573.921875 226.929688 573.753906 227.507812 574.003906 228.007812 C 574.253906 228.339844 574.75 228.585938 575.082031 228.339844 C 575.164062 228.339844 575.164062 228.253906 575.164062 228.253906 C 579.886719 225.519531 584.777344 223.03125 589.917969 221.042969 L 589.253906 219.300781 C 584.117188 221.457031 579.058594 223.859375 574.335938 226.679688 Z M 574.335938 226.679688 " fill-opacity="1" fill-rule="nonzero"/><path fill="#479ece" d="M 599.03125 216.976562 C 598.949219 216.480469 598.371094 216.230469 597.871094 216.398438 C 594.972656 217.226562 592.070312 218.304688 589.253906 219.382812 L 589.917969 221.125 C 592.652344 220.046875 595.46875 219.050781 598.371094 218.140625 C 598.949219 217.972656 599.28125 217.476562 599.03125 216.976562 Z M 599.03125 216.976562 " fill-opacity="1" fill-rule="nonzero"/><path fill="#479ece" d="M 722.6875 273.199219 C 722.851562 273.617188 723.429688 273.78125 723.847656 273.617188 L 723.929688 273.617188 C 724.34375 273.367188 724.589844 272.785156 724.34375 272.371094 C 720.695312 264.660156 715.972656 257.277344 710.417969 250.644531 C 710.089844 250.3125 709.507812 250.230469 709.09375 250.5625 C 708.679688 250.894531 708.679688 251.472656 709.011719 251.890625 C 714.480469 258.355469 719.039062 265.570312 722.6875 273.199219 Z M 722.6875 273.199219 " fill-opacity="1" fill-rule="nonzero"/><path fill="#479ece" d="M 623.480469 213.828125 C 631.933594 213.496094 640.472656 214.074219 648.84375 215.734375 C 649.007812 215.816406 649.171875 215.734375 649.339844 215.652344 C 649.671875 215.566406 649.835938 215.320312 649.917969 214.988281 C 650.003906 214.488281 649.671875 213.992188 649.171875 213.910156 C 640.71875 212.25 632.019531 211.585938 623.398438 212.003906 C 622.902344 212.003906 622.488281 212.417969 622.570312 212.996094 C 622.570312 213.496094 622.984375 213.910156 623.480469 213.828125 Z M 623.480469 213.828125 " fill-opacity="1" fill-rule="nonzero"/><path fill="#479ece" d="M 672.875 223.613281 C 680.585938 227.261719 687.710938 231.738281 694.339844 237.128906 C 694.589844 237.378906 694.921875 237.378906 695.253906 237.210938 C 695.335938 237.128906 695.5 237.128906 695.585938 236.960938 C 695.917969 236.632812 695.832031 235.96875 695.5 235.636719 C 688.789062 230.164062 681.496094 225.519531 673.621094 221.871094 C 673.125 221.621094 672.628906 221.871094 672.378906 222.285156 C 672.214844 222.867188 672.378906 223.445312 672.875 223.613281 Z M 672.875 223.613281 " fill-opacity="1" fill-rule="nonzero"/><path fill="#479ece" d="M 733.625 323.453125 C 733.707031 323.453125 733.875 323.453125 733.957031 323.371094 C 734.289062 323.289062 734.535156 322.957031 734.535156 322.539062 C 734.867188 313.917969 734.207031 305.292969 732.464844 296.75 C 732.382812 296.253906 731.886719 295.921875 731.386719 296.003906 C 730.890625 296.089844 730.558594 296.585938 730.640625 297.082031 C 732.382812 305.375 733.046875 313.832031 732.628906 322.375 C 732.796875 323.039062 733.128906 323.453125 733.625 323.453125 Z M 733.625 323.453125 " fill-opacity="1" fill-rule="nonzero"/><path fill="#479ece" d="M 553.863281 242.4375 C 547.730469 248.488281 542.34375 255.289062 537.785156 262.667969 C 537.539062 263.082031 537.703125 263.664062 538.117188 263.996094 C 538.367188 264.160156 538.699219 264.160156 538.949219 264.078125 C 539.113281 263.996094 539.277344 263.914062 539.363281 263.746094 C 543.753906 256.53125 549.058594 249.816406 555.191406 243.84375 C 555.523438 243.515625 555.523438 242.933594 555.191406 242.519531 C 554.859375 242.105469 554.195312 242.105469 553.863281 242.4375 Z M 553.863281 242.4375 " fill-opacity="1" fill-rule="nonzero"/><path fill="#479ece" d="M 610.054688 423.046875 C 610.222656 423.046875 610.386719 423.046875 610.554688 422.964844 C 610.882812 422.878906 611.050781 422.632812 611.132812 422.300781 C 611.214844 421.800781 610.882812 421.304688 610.386719 421.222656 C 602.183594 419.8125 594.226562 417.40625 586.683594 414.089844 L 585.9375 415.832031 C 593.5625 419.148438 601.683594 421.554688 610.054688 423.046875 Z M 610.054688 423.046875 " fill-opacity="1" fill-rule="nonzero"/><path fill="#479ece" d="M 718.707031 370.886719 C 718.457031 371.300781 718.625 371.882812 719.039062 372.214844 C 719.289062 372.296875 719.621094 372.378906 719.867188 372.296875 C 720.035156 372.214844 720.199219 372.128906 720.28125 371.964844 C 722.355469 368.398438 724.261719 364.667969 725.917969 360.851562 L 724.175781 360.105469 C 722.601562 363.671875 720.78125 367.402344 718.707031 370.886719 Z M 718.707031 370.886719 " fill-opacity="1" fill-rule="nonzero"/><path fill="#479ece" d="M 660.609375 417.65625 C 652.570312 420.226562 644.199219 421.886719 635.746094 422.464844 C 635.25 422.546875 634.917969 422.964844 634.917969 423.460938 C 635 423.957031 635.417969 424.371094 635.914062 424.289062 C 644.53125 423.710938 653.070312 422.050781 661.273438 419.398438 L 661.355469 419.398438 C 661.769531 419.230469 662.019531 418.734375 661.9375 418.234375 C 661.605469 417.820312 661.109375 417.574219 660.609375 417.65625 Z M 660.609375 417.65625 " fill-opacity="1" fill-rule="nonzero"/><path fill="#479ece" d="M 711.828125 235.96875 C 711.582031 235.96875 711.332031 235.882812 711.164062 235.71875 C 710.835938 235.386719 710.835938 234.804688 711.164062 234.390625 L 767.523438 178.003906 C 767.855469 177.671875 768.433594 177.671875 768.847656 178.003906 C 769.179688 178.335938 769.179688 178.914062 768.847656 179.328125 L 712.492188 235.636719 C 712.242188 235.800781 712.078125 235.96875 711.828125 235.96875 Z M 711.828125 235.96875 " fill-opacity="1" fill-rule="nonzero"/><path fill="#479ece" d="M 768.183594 459.199219 C 768.101562 459.199219 767.855469 459.117188 767.769531 459.035156 L 711.164062 404.800781 C 710.917969 404.554688 710.917969 404.222656 711.164062 403.972656 C 711.414062 403.722656 711.746094 403.722656 711.996094 403.972656 L 768.597656 458.207031 C 768.847656 458.453125 768.847656 458.785156 768.597656 459.035156 C 768.515625 459.117188 768.351562 459.199219 768.183594 459.199219 Z M 768.183594 459.199219 " fill-opacity="1" fill-rule="nonzero"/><g clip-path="url(#e5f6135aad)"><path fill="#479ece" d="M 627.957031 415.75 L 628.539062 415.75 L 628.539062 516.585938 L 627.957031 516.585938 Z M 627.957031 415.75 " fill-opacity="1" fill-rule="nonzero"/></g><g clip-path="url(#23f7bfede9)"><path fill="#479ece" d="M 430.378906 318.230469 L 509.859375 318.230469 L 509.859375 318.808594 L 430.378906 318.808594 Z M 430.378906 318.230469 " fill-opacity="1" fill-rule="nonzero"/></g></svg>