<svg xmlns="http://www.w3.org/2000/svg" xmlns:xlink="http://www.w3.org/1999/xlink" width="100" zoomAndPan="magnify" viewBox="0 0 1230 693.000001" height="1024" preserveAspectRatio="xMidYMid meet" version="1.0"><defs><clipPath id="0a8134760f"><path d="M 85.140625 234.25 L 1144.863281 234.25 L 1144.863281 457.425781 L 85.140625 457.425781 Z M 85.140625 234.25 " clip-rule="nonzero"/></clipPath></defs><g clip-path="url(#0a8134760f)"><path fill="#479ece" d="M 1129.335938 234.445312 C 1120.710938 234.445312 1113.8125 241.335938 1113.8125 249.949219 C 1113.8125 250.238281 1113.8125 250.523438 1113.8125 250.8125 L 662.4375 250.8125 L 487.925781 438.855469 L 115.902344 438.855469 C 114.464844 431.675781 108.429688 426.222656 100.664062 426.222656 C 92.039062 426.222656 85.140625 433.113281 85.140625 441.726562 C 85.140625 450.339844 92.039062 457.226562 100.664062 457.226562 C 108.429688 457.226562 114.753906 451.488281 115.902344 444.023438 L 490.226562 444.023438 L 664.738281 255.980469 L 1115.25 255.980469 C 1117.550781 261.433594 1123.011719 265.453125 1129.335938 265.453125 C 1137.960938 265.453125 1144.863281 258.5625 1144.863281 249.949219 C 1144.863281 241.335938 1137.960938 234.445312 1129.335938 234.445312 Z M 1129.335938 234.445312 " fill-opacity="1" fill-rule="nonzero"/></g></svg>