<svg width="400" height="400" viewBox="0 0 2371 2371" fill="none" xmlns="http://www.w3.org/2000/svg">
<g clip-path="url(#clip0_845_47)">
<path d="M343.951 1747.05C345.884 1737.58 351.264 1729.17 359.047 1723.44C366.831 1717.71 376.464 1715.08 386.079 1716.05C395.694 1717.02 404.606 1721.53 411.087 1728.7C417.568 1735.87 421.157 1745.19 421.157 1754.85C421.157 1764.52 417.568 1773.84 411.087 1781C404.606 1788.17 395.694 1792.68 386.079 1793.65C376.464 1794.62 366.831 1791.99 359.047 1786.26C351.264 1780.53 345.884 1772.12 343.951 1762.65H0V1747.05H343.951ZM1591.85 2121.42C1593.78 2111.95 1599.16 2103.54 1606.94 2097.81C1614.73 2092.08 1624.36 2089.45 1633.97 2090.42C1643.59 2091.39 1652.5 2095.9 1658.98 2103.07C1665.46 2110.24 1669.05 2119.56 1669.05 2129.22C1669.05 2138.88 1665.46 2148.2 1658.98 2155.37C1652.5 2162.54 1643.59 2167.05 1633.97 2168.02C1624.36 2168.99 1614.73 2166.36 1606.94 2160.63C1599.16 2154.9 1593.78 2146.49 1591.85 2137.02H639.546V2121.42H1591.85ZM2042.65 1762.65C2040.71 1772.12 2035.34 1780.53 2027.55 1786.26C2019.77 1791.99 2010.13 1794.62 2000.52 1793.65C1990.9 1792.68 1981.99 1788.17 1975.51 1781C1969.03 1773.84 1965.44 1764.52 1965.44 1754.85C1965.44 1745.19 1969.03 1735.87 1975.51 1728.7C1981.99 1721.53 1990.9 1717.02 2000.52 1716.05C2010.13 1715.08 2019.77 1717.71 2027.55 1723.44C2035.34 1729.17 2040.71 1737.58 2042.65 1747.05H2371V1762.65H2042.65ZM2042.65 1887.44C2040.71 1896.91 2035.34 1905.32 2027.55 1911.05C2019.77 1916.78 2010.13 1919.41 2000.52 1918.44C1990.9 1917.47 1981.99 1912.96 1975.51 1905.79C1969.03 1898.63 1965.44 1889.31 1965.44 1879.64C1965.44 1869.98 1969.03 1860.66 1975.51 1853.49C1981.99 1846.32 1990.9 1841.81 2000.52 1840.84C2010.13 1839.87 2019.77 1842.5 2027.55 1848.23C2035.34 1853.96 2040.71 1862.37 2042.65 1871.84H2371V1887.44H2042.65ZM2091 998.316C2092.94 988.847 2098.32 980.433 2106.1 974.706C2113.88 968.978 2123.52 966.345 2133.13 967.316C2142.75 968.287 2151.66 972.794 2158.14 979.963C2164.62 987.131 2168.21 996.451 2168.21 1006.12C2168.21 1015.78 2164.62 1025.1 2158.14 1032.27C2151.66 1039.44 2142.75 1043.94 2133.13 1044.91C2123.52 1045.89 2113.88 1043.25 2106.1 1037.52C2098.32 1031.8 2092.94 1023.38 2091 1013.91H1418.7C1416.77 1023.38 1411.39 1031.8 1403.6 1037.52C1395.82 1043.25 1386.19 1045.89 1376.57 1044.91C1366.96 1043.94 1358.05 1039.44 1351.56 1032.27C1345.08 1025.1 1341.49 1015.78 1341.49 1006.12C1341.49 996.451 1345.08 987.131 1351.56 979.963C1358.05 972.794 1366.96 968.287 1376.57 967.316C1386.19 966.345 1395.82 968.978 1403.6 974.706C1411.39 980.433 1416.77 988.847 1418.7 998.316H2091ZM94.372 623.947C96.3048 614.479 101.685 606.065 109.468 600.337C117.252 594.61 126.885 591.976 136.5 592.947C146.115 593.919 155.027 598.426 161.508 605.594C167.989 612.763 171.578 622.083 171.578 631.747C171.578 641.411 167.989 650.73 161.508 657.899C155.027 665.068 146.115 669.575 136.5 670.546C126.885 671.517 117.252 668.884 109.468 663.156C101.685 657.429 96.3048 649.015 94.372 639.546H0V623.947H94.372ZM1543.49 889.125C1541.56 898.594 1536.18 907.008 1528.39 912.735C1520.61 918.463 1510.98 921.096 1501.36 920.125C1491.75 919.154 1482.83 914.647 1476.35 907.478C1469.87 900.309 1466.28 890.99 1466.28 881.326C1466.28 871.662 1469.87 862.342 1476.35 855.173C1482.83 848.005 1491.75 843.498 1501.36 842.526C1510.98 841.555 1520.61 844.189 1528.39 849.916C1536.18 855.644 1541.56 864.058 1543.49 873.526H2215.79C2217.73 864.058 2223.11 855.644 2230.89 849.916C2238.67 844.189 2248.31 841.555 2257.92 842.526C2267.54 843.498 2276.45 848.005 2282.93 855.173C2289.41 862.342 2293 871.662 2293 881.326C2293 890.99 2289.41 900.309 2282.93 907.478C2276.45 914.647 2267.54 919.154 2257.92 920.125C2248.31 921.096 2238.67 918.463 2230.89 912.735C2223.11 907.008 2217.73 898.594 2215.79 889.125H1543.49ZM2012.23 94.372C2021.7 96.3048 2030.11 101.685 2035.84 109.468C2041.57 117.252 2044.2 126.885 2043.23 136.5C2042.26 146.115 2037.75 155.027 2030.58 161.508C2023.41 167.989 2014.09 171.578 2004.43 171.578C1994.77 171.578 1985.45 167.989 1978.28 161.508C1971.11 155.027 1966.6 146.115 1965.63 136.5C1964.66 126.885 1967.29 117.252 1973.02 109.468C1978.75 101.685 1987.16 96.3048 1996.63 94.372V0H2012.23V94.372ZM1513.07 1716.64C1522.54 1718.57 1530.95 1723.95 1536.68 1731.73C1542.41 1739.52 1545.04 1749.15 1544.07 1758.76C1543.1 1768.38 1538.59 1777.29 1531.43 1783.77C1524.26 1790.25 1514.94 1793.84 1505.27 1793.84C1495.61 1793.84 1486.29 1790.25 1479.12 1783.77C1471.95 1777.29 1467.45 1768.38 1466.47 1758.76C1465.5 1749.15 1468.14 1739.52 1473.86 1731.73C1479.59 1723.95 1488 1718.57 1497.47 1716.64V1293.91C1488 1291.98 1479.59 1286.6 1473.86 1278.81C1468.14 1271.03 1465.5 1261.4 1466.47 1251.78C1467.45 1242.17 1471.95 1233.26 1479.12 1226.77C1486.29 1220.29 1495.61 1216.71 1505.27 1216.71C1514.94 1216.71 1524.26 1220.29 1531.43 1226.77C1538.59 1233.26 1543.1 1242.17 1544.07 1251.78C1545.04 1261.4 1542.41 1271.03 1536.68 1278.81C1530.95 1286.6 1522.54 1291.98 1513.07 1293.91V1716.64ZM1887.44 170.806V623.947H2371V639.546H1871.84V170.806C1862.37 168.873 1853.96 163.493 1848.23 155.709C1842.5 147.926 1839.87 138.292 1840.84 128.677C1841.81 119.062 1846.32 110.15 1853.49 103.669C1860.66 97.1884 1869.98 93.6001 1879.64 93.6001C1889.31 93.6001 1898.63 97.1884 1905.79 103.669C1912.96 110.15 1917.47 119.062 1918.44 128.677C1919.41 138.292 1916.78 147.926 1911.05 155.709C1905.32 163.493 1896.91 168.873 1887.44 170.806ZM2012.23 295.595V499.158H2371V514.757H1996.63V295.595C1987.16 293.662 1978.75 288.282 1973.02 280.499C1967.29 272.715 1964.66 263.082 1965.63 253.467C1966.6 243.852 1971.11 234.94 1978.28 228.459C1985.45 221.978 1994.77 218.39 2004.43 218.39C2014.09 218.39 2023.41 221.978 2030.58 228.459C2037.75 234.94 2042.26 243.852 2043.23 253.467C2044.2 263.082 2041.57 272.715 2035.84 280.499C2030.11 288.282 2021.7 293.662 2012.23 295.595ZM1013.91 1044.33V1622.26H1138.7V1716.64C1148.17 1718.57 1156.59 1723.95 1162.31 1731.73C1168.04 1739.52 1170.68 1749.15 1169.7 1758.76C1168.73 1768.38 1164.23 1777.29 1157.06 1783.77C1149.89 1790.25 1140.57 1793.84 1130.9 1793.84C1121.24 1793.84 1111.92 1790.25 1104.75 1783.77C1097.58 1777.29 1093.08 1768.38 1092.11 1758.76C1091.13 1749.15 1093.77 1739.52 1099.5 1731.73C1105.22 1723.95 1113.64 1718.57 1123.11 1716.64V1637.86H998.316V1044.33C988.847 1042.4 980.433 1037.02 974.706 1029.24C968.978 1021.45 966.345 1011.82 967.316 1002.2C968.287 992.589 972.794 983.677 979.963 977.196C987.131 970.715 996.451 967.126 1006.12 967.126C1015.78 967.126 1025.1 970.715 1032.27 977.196C1039.44 983.677 1043.94 992.589 1044.91 1002.2C1045.89 1011.82 1043.25 1021.45 1037.52 1029.24C1031.8 1037.02 1023.38 1042.4 1013.91 1044.33ZM967.898 873.526C969.831 864.058 975.211 855.644 982.995 849.916C990.778 844.189 1000.41 841.555 1010.03 842.526C1019.64 843.498 1028.55 848.005 1035.03 855.173C1041.52 862.342 1045.1 871.662 1045.1 881.326C1045.1 890.99 1041.52 900.309 1035.03 907.478C1028.55 914.647 1019.64 919.154 1010.03 920.125C1000.41 921.096 990.778 918.463 982.995 912.735C975.211 907.008 969.831 898.594 967.898 889.125H889.125V1263.49H669.964C668.031 1272.96 662.651 1281.38 654.867 1287.1C647.083 1292.83 637.45 1295.46 627.835 1294.49C618.22 1293.52 609.308 1289.02 602.827 1281.85C596.346 1274.68 592.758 1265.36 592.758 1255.69C592.758 1246.03 596.346 1236.71 602.827 1229.54C609.308 1222.37 618.22 1217.87 627.835 1216.89C637.45 1215.92 647.083 1218.56 654.867 1224.28C662.651 1230.01 668.031 1238.43 669.964 1247.89H873.526V873.526H967.898ZM919.542 1887.44C917.61 1896.91 912.23 1905.32 904.446 1911.05C896.662 1916.78 887.029 1919.41 877.414 1918.44C867.799 1917.47 858.887 1912.96 852.406 1905.79C845.925 1898.63 842.337 1889.31 842.337 1879.64C842.337 1869.98 845.925 1860.66 852.406 1853.49C858.887 1846.32 867.799 1841.81 877.414 1840.84C887.029 1839.87 896.662 1842.5 904.446 1848.23C912.23 1853.96 917.61 1862.37 919.542 1871.84H1372.68V1293.91C1363.22 1291.98 1354.8 1286.6 1349.07 1278.81C1343.35 1271.03 1340.71 1261.4 1341.68 1251.78C1342.66 1242.17 1347.16 1233.26 1354.33 1226.77C1361.5 1220.29 1370.82 1216.71 1380.48 1216.71C1390.15 1216.71 1399.47 1220.29 1406.64 1226.77C1413.8 1233.26 1418.31 1242.17 1419.28 1251.78C1420.25 1261.4 1417.62 1271.03 1411.89 1278.81C1406.17 1286.6 1397.75 1291.98 1388.28 1293.91V1887.44H919.542ZM794.753 1388.28C792.82 1397.75 787.44 1406.17 779.657 1411.89C771.873 1417.62 762.24 1420.25 752.625 1419.28C743.01 1418.31 734.098 1413.8 727.617 1406.64C721.136 1399.47 717.547 1390.15 717.547 1380.48C717.547 1370.82 721.136 1361.5 727.617 1354.33C734.098 1347.16 743.01 1342.66 752.625 1341.68C762.24 1340.71 771.873 1343.35 779.657 1349.07C787.44 1354.8 792.82 1363.22 794.753 1372.68H889.125V1747.05H967.898C969.831 1737.58 975.211 1729.17 982.995 1723.44C990.778 1717.71 1000.41 1715.08 1010.03 1716.05C1019.64 1717.02 1028.55 1721.53 1035.03 1728.7C1041.52 1735.87 1045.1 1745.19 1045.1 1754.85C1045.1 1764.52 1041.52 1773.84 1035.03 1781C1028.55 1788.17 1019.64 1792.68 1010.03 1793.65C1000.41 1794.62 990.778 1791.99 982.995 1786.26C975.211 1780.53 969.831 1772.12 967.898 1762.65H873.526V1388.28H794.753ZM514.757 2215.79C524.225 2217.73 532.639 2223.11 538.367 2230.89C544.094 2238.67 546.728 2248.31 545.756 2257.92C544.785 2267.54 540.278 2276.45 533.11 2282.93C525.941 2289.41 516.621 2293 506.957 2293C497.293 2293 487.974 2289.41 480.805 2282.93C473.636 2276.45 469.129 2267.54 468.158 2257.92C467.187 2248.31 469.82 2238.67 475.548 2230.89C481.275 2223.11 489.689 2217.73 499.158 2215.79V2137.02H389.967V2371H374.368V2121.42H514.757V2215.79ZM1841.42 1372.68C1843.36 1363.22 1848.74 1354.8 1856.52 1349.07C1864.3 1343.35 1873.94 1340.71 1883.55 1341.68C1893.17 1342.66 1902.08 1347.16 1908.56 1354.33C1915.04 1361.5 1918.63 1370.82 1918.63 1380.48C1918.63 1390.15 1915.04 1399.47 1908.56 1406.64C1902.08 1413.8 1893.17 1418.31 1883.55 1419.28C1873.94 1420.25 1864.3 1417.62 1856.52 1411.89C1848.74 1406.17 1843.36 1397.75 1841.42 1388.28H1762.65V2121.42H2137.02V2371H2121.42V2137.02H1747.05V1372.68H1841.42ZM2042.65 1138.7C2040.71 1148.17 2035.34 1156.59 2027.55 1162.31C2019.77 1168.04 2010.13 1170.68 2000.52 1169.7C1990.9 1168.73 1981.99 1164.23 1975.51 1157.06C1969.03 1149.89 1965.44 1140.57 1965.44 1130.9C1965.44 1121.24 1969.03 1111.92 1975.51 1104.75C1981.99 1097.58 1990.9 1093.08 2000.52 1092.11C2010.13 1091.13 2019.77 1093.77 2027.55 1099.5C2035.34 1105.22 2040.71 1113.64 2042.65 1123.11H2137.02V1467.06C2146.49 1468.99 2154.9 1474.37 2160.63 1482.15C2166.36 1489.94 2168.99 1499.57 2168.02 1509.18C2167.05 1518.8 2162.54 1527.71 2155.37 1534.19C2148.2 1540.67 2138.88 1544.26 2129.22 1544.26C2119.56 1544.26 2110.24 1540.67 2103.07 1534.19C2095.9 1527.71 2091.39 1518.8 2090.42 1509.18C2089.45 1499.57 2092.08 1489.94 2097.81 1482.15C2103.54 1474.37 2111.95 1468.99 2121.42 1467.06V1138.7H2042.65ZM1543.49 1887.44C1541.56 1896.91 1536.18 1905.32 1528.39 1911.05C1520.61 1916.78 1510.98 1919.41 1501.36 1918.44C1491.75 1917.47 1482.83 1912.96 1476.35 1905.79C1469.87 1898.63 1466.28 1889.31 1466.28 1879.64C1466.28 1869.98 1469.87 1860.66 1476.35 1853.49C1482.83 1846.32 1491.75 1841.81 1501.36 1840.84C1510.98 1839.87 1520.61 1842.5 1528.39 1848.23C1536.18 1853.96 1541.56 1862.37 1543.49 1871.84H1622.26V1247.89H1747.05V1138.7H1418.7C1416.77 1148.17 1411.39 1156.59 1403.6 1162.31C1395.82 1168.04 1386.19 1170.68 1376.57 1169.7C1366.96 1168.73 1358.05 1164.23 1351.56 1157.06C1345.08 1149.89 1341.49 1140.57 1341.49 1130.9C1341.49 1121.24 1345.08 1111.92 1351.56 1104.75C1358.05 1097.58 1366.96 1093.08 1376.57 1092.11C1386.19 1091.13 1395.82 1093.77 1403.6 1099.5C1411.39 1105.22 1416.77 1113.64 1418.7 1123.11H1762.65V1263.49H1637.86V1887.44H1543.49ZM2215.79 249.579C2217.73 240.11 2223.11 231.696 2230.89 225.969C2238.67 220.241 2248.31 217.608 2257.92 218.579C2267.54 219.55 2276.45 224.057 2282.93 231.226C2289.41 238.395 2293 247.714 2293 257.378C2293 267.042 2289.41 276.362 2282.93 283.531C2276.45 290.699 2267.54 295.206 2257.92 296.178C2248.31 297.149 2238.67 294.515 2230.89 288.788C2223.11 283.06 2217.73 274.646 2215.79 265.178H2121.42V0H2137.02V249.579H2215.79ZM764.336 794.753V1138.7H420.385C418.452 1148.17 413.072 1156.59 405.288 1162.31C397.504 1168.04 387.871 1170.68 378.256 1169.7C368.641 1168.73 359.729 1164.23 353.248 1157.06C346.767 1149.89 343.179 1140.57 343.179 1130.9C343.179 1121.24 346.767 1111.92 353.248 1104.75C359.729 1097.58 368.641 1093.08 378.256 1092.11C387.871 1091.13 397.504 1093.77 405.288 1099.5C413.072 1105.22 418.452 1113.64 420.385 1123.11H748.737V794.753C739.268 792.82 730.854 787.44 725.127 779.657C719.399 771.873 716.766 762.24 717.737 752.625C718.708 743.01 723.215 734.098 730.384 727.617C737.552 721.136 746.872 717.547 756.536 717.547C766.2 717.547 775.52 721.136 782.689 727.617C789.857 734.098 794.364 743.01 795.335 752.625C796.307 762.24 793.673 771.873 787.946 779.657C782.218 787.44 773.804 792.82 764.336 794.753ZM420.385 265.178C418.452 274.646 413.072 283.06 405.288 288.788C397.504 294.515 387.871 297.149 378.256 296.178C368.641 295.206 359.729 290.699 353.248 283.531C346.767 276.362 343.179 267.042 343.179 257.378C343.179 247.714 346.767 238.395 353.248 231.226C359.729 224.057 368.641 219.55 378.256 218.579C387.871 217.608 397.504 220.241 405.288 225.969C413.072 231.696 418.452 240.11 420.385 249.579H623.947V0H639.546V265.178H420.385ZM889.125 295.595V514.757H639.546V1013.91H545.174C543.241 1023.38 537.861 1031.8 530.078 1037.52C522.294 1043.25 512.661 1045.89 503.046 1044.91C493.431 1043.94 484.519 1039.44 478.038 1032.27C471.557 1025.1 467.969 1015.78 467.969 1006.12C467.969 996.451 471.557 987.131 478.038 979.963C484.519 972.794 493.431 968.287 503.046 967.316C512.661 966.345 522.294 968.978 530.078 974.706C537.861 980.433 543.241 988.847 545.174 998.316H623.947V499.158H873.526V295.595C864.058 293.662 855.644 288.282 849.916 280.499C844.189 272.715 841.555 263.082 842.526 253.467C843.498 243.852 848.005 234.94 855.173 228.459C862.342 221.978 871.662 218.39 881.326 218.39C890.99 218.39 900.309 221.978 907.478 228.459C914.647 234.94 919.154 243.852 920.125 253.467C921.096 263.082 918.463 272.715 912.735 280.499C907.008 288.282 898.594 293.662 889.125 295.595ZM794.753 639.546C792.82 649.015 787.44 657.429 779.657 663.156C771.873 668.884 762.24 671.517 752.625 670.546C743.01 669.575 734.098 665.068 727.617 657.899C721.136 650.73 717.547 641.411 717.547 631.747C717.547 622.083 721.136 612.763 727.617 605.594C734.098 598.426 743.01 593.919 752.625 592.947C762.24 591.976 771.873 594.61 779.657 600.337C787.44 606.065 792.82 614.479 794.753 623.947H998.316V295.595C988.847 293.662 980.433 288.282 974.706 280.499C968.978 272.715 966.345 263.082 967.316 253.467C968.287 243.852 972.794 234.94 979.963 228.459C987.131 221.978 996.451 218.39 1006.12 218.39C1015.78 218.39 1025.1 221.978 1032.27 228.459C1039.44 234.94 1043.94 243.852 1044.91 253.467C1045.89 263.082 1043.25 272.715 1037.52 280.499C1031.8 288.282 1023.38 293.662 1013.91 295.595V639.546H794.753ZM919.542 140.388C917.61 149.857 912.23 158.271 904.446 163.998C896.662 169.726 887.029 172.359 877.414 171.388C867.799 170.417 858.887 165.91 852.406 158.741C845.925 151.573 842.337 142.253 842.337 132.589C842.337 122.925 845.925 113.605 852.406 106.436C858.887 99.2678 867.799 94.7609 877.414 93.7896C887.029 92.8183 896.662 95.4517 904.446 101.179C912.23 106.907 917.61 115.321 919.542 124.789H1138.7V468.74C1148.17 470.673 1156.59 476.053 1162.31 483.837C1168.04 491.621 1170.68 501.254 1169.7 510.869C1168.73 520.484 1164.23 529.396 1157.06 535.877C1149.89 542.358 1140.57 545.946 1130.9 545.946C1121.24 545.946 1111.92 542.358 1104.75 535.877C1097.58 529.396 1093.08 520.484 1092.11 510.869C1091.13 501.254 1093.77 491.621 1099.5 483.837C1105.22 476.053 1113.64 470.673 1123.11 468.74V140.388H919.542ZM1716.64 2246.21C1718.57 2236.74 1723.95 2228.33 1731.73 2222.6C1739.52 2216.87 1749.15 2214.24 1758.76 2215.21C1768.38 2216.18 1777.29 2220.69 1783.77 2227.86C1790.25 2235.03 1793.84 2244.35 1793.84 2254.01C1793.84 2263.67 1790.25 2272.99 1783.77 2280.16C1777.29 2287.33 1768.38 2291.84 1758.76 2292.81C1749.15 2293.78 1739.52 2291.15 1731.73 2285.42C1723.95 2279.69 1718.57 2271.28 1716.64 2261.81H764.336V2371H748.737V2246.21H1716.64ZM1887.44 1169.12V1247.89H2012.23V1513.07H1887.44V1996.63H2261.81V2371H2246.21V2012.23H1871.84V1497.47H1996.63V1263.49H1871.84V1169.12C1862.37 1167.19 1853.96 1161.81 1848.23 1154.03C1842.5 1146.24 1839.87 1136.61 1840.84 1126.99C1841.81 1117.38 1846.32 1108.47 1853.49 1101.99C1860.66 1095.5 1869.98 1091.92 1879.64 1091.92C1889.31 1091.92 1898.63 1095.5 1905.79 1101.99C1912.96 1108.47 1917.47 1117.38 1918.44 1126.99C1919.41 1136.61 1916.78 1146.24 1911.05 1154.03C1905.32 1161.81 1896.91 1167.19 1887.44 1169.12ZM420.385 140.388C418.452 149.857 413.072 158.271 405.288 163.998C397.504 169.726 387.871 172.359 378.256 171.388C368.641 170.417 359.729 165.91 353.248 158.741C346.767 151.573 343.179 142.253 343.179 132.589C343.179 122.925 346.767 113.605 353.248 106.436C359.729 99.2678 368.641 94.7609 378.256 93.7896C387.871 92.8183 397.504 95.4517 405.288 101.179C413.072 106.907 418.452 115.321 420.385 124.789H499.158V15.5987H374.368V0H514.757V140.388H420.385ZM1293.91 389.967C1291.98 399.436 1286.6 407.85 1278.81 413.577C1271.03 419.305 1261.4 421.938 1251.78 420.967C1242.17 419.996 1233.26 415.489 1226.77 408.32C1220.29 401.151 1216.71 391.832 1216.71 382.168C1216.71 372.504 1220.29 363.184 1226.77 356.015C1233.26 348.847 1242.17 344.34 1251.78 343.369C1261.4 342.397 1271.03 345.031 1278.81 350.758C1286.6 356.486 1291.98 364.9 1293.91 374.368H1497.47V0H1887.44V15.5987H1513.07V389.967H1293.91ZM919.542 15.5987C918.518 20.6174 916.516 25.3852 913.649 29.6299C910.782 33.8746 907.107 37.5131 902.834 40.3377C898.561 43.1622 893.774 45.1174 888.745 46.0917C883.716 47.066 878.545 47.0403 873.526 46.0161C868.508 44.9919 863.74 42.9892 859.495 40.1224C855.25 37.2555 851.612 33.5807 848.787 29.3077C843.083 20.678 841.04 10.1357 843.109 0L859.254 0C858.012 3.52817 857.635 7.30247 858.153 11.0065C858.672 14.7105 860.07 18.2364 862.232 21.2885C864.394 24.3406 867.256 26.8299 870.578 28.548C873.9 30.266 877.586 31.1626 881.326 31.1626C885.066 31.1626 888.751 30.266 892.074 28.548C895.396 26.8299 898.258 24.3406 900.419 21.2885C902.581 18.2364 903.98 14.7105 904.498 11.0065C905.016 7.30247 904.639 3.52817 903.398 0L1388.28 0V265.178H1247.89V170.806C1238.43 168.873 1230.01 163.493 1224.28 155.709C1218.56 147.926 1215.92 138.292 1216.89 128.677C1217.87 119.062 1222.37 110.15 1229.54 103.669C1236.71 97.1884 1246.03 93.6001 1255.69 93.6001C1265.36 93.6001 1274.68 97.1884 1281.85 103.669C1289.02 110.15 1293.52 119.062 1294.49 128.677C1295.46 138.292 1292.83 147.926 1287.1 155.709C1281.38 163.493 1272.96 168.873 1263.49 170.806V249.579H1372.68V15.5987H919.542ZM919.542 764.336C917.61 773.804 912.23 782.218 904.446 787.946C896.662 793.673 887.029 796.307 877.414 795.335C867.799 794.364 858.887 789.857 852.406 782.689C845.925 775.52 842.337 766.2 842.337 756.536C842.337 746.872 845.925 737.552 852.406 730.384C858.887 723.215 867.799 718.708 877.414 717.737C887.029 716.766 896.662 719.399 904.446 725.127C912.23 730.854 917.61 739.268 919.542 748.737H1068.51L1318.09 499.158H1622.26V170.806C1612.79 168.873 1604.38 163.493 1598.65 155.709C1592.93 147.926 1590.29 138.292 1591.26 128.677C1592.23 119.062 1596.74 110.15 1603.91 103.669C1611.08 97.1884 1620.4 93.6001 1630.06 93.6001C1639.73 93.6001 1649.05 97.1884 1656.21 103.669C1663.38 110.15 1667.89 119.062 1668.86 128.677C1669.83 138.292 1667.2 147.926 1661.47 155.709C1655.74 163.493 1647.33 168.873 1637.86 170.806V514.757H1324.56L1074.98 764.336H919.542ZM1138.7 1467.06C1148.17 1468.99 1156.59 1474.37 1162.31 1482.15C1168.04 1489.94 1170.68 1499.57 1169.7 1509.18C1168.73 1518.8 1164.23 1527.71 1157.06 1534.19C1149.89 1540.67 1140.57 1544.26 1130.9 1544.26C1121.24 1544.26 1111.92 1540.67 1104.75 1534.19C1097.58 1527.71 1093.08 1518.8 1092.11 1509.18C1091.13 1499.57 1093.77 1489.94 1099.5 1482.15C1105.22 1474.37 1113.64 1468.99 1123.11 1467.06V870.329L1369.49 623.947H1747.05V170.806C1737.58 168.873 1729.17 163.493 1723.44 155.709C1717.71 147.926 1715.08 138.292 1716.05 128.677C1717.02 119.062 1721.53 110.15 1728.7 103.669C1735.87 97.1884 1745.19 93.6001 1754.85 93.6001C1764.52 93.6001 1773.84 97.1884 1781 103.669C1788.17 110.15 1792.68 119.062 1793.65 128.677C1794.62 138.292 1791.99 147.926 1786.26 155.709C1780.53 163.493 1772.12 168.873 1762.65 170.806V639.546H1375.88L1138.7 876.724V1467.06ZM1263.49 1716.64C1272.96 1718.57 1281.38 1723.95 1287.1 1731.73C1292.83 1739.52 1295.46 1749.15 1294.49 1758.76C1293.52 1768.38 1289.02 1777.29 1281.85 1783.77C1274.68 1790.25 1265.36 1793.84 1255.69 1793.84C1246.03 1793.84 1236.71 1790.25 1229.54 1783.77C1222.37 1777.29 1217.87 1768.38 1216.89 1758.76C1215.92 1749.15 1218.56 1739.52 1224.28 1731.73C1230.01 1723.95 1238.43 1718.57 1247.89 1716.64V940.523L1439.68 748.737H2340.58C2342.11 741.243 2345.81 734.363 2351.22 728.955C2356.63 723.546 2363.51 719.848 2371 718.319V734.464C2366.43 736.072 2362.47 739.059 2359.67 743.012C2356.87 746.966 2355.37 751.691 2355.37 756.536C2355.37 761.381 2356.87 766.106 2359.67 770.06C2362.47 774.014 2366.43 777.001 2371 778.608V794.753C2363.51 793.225 2356.63 789.526 2351.22 784.118C2345.81 778.709 2342.11 771.83 2340.58 764.336H1446.08L1263.49 946.918V1716.64ZM140.388 1217.48C149.857 1219.41 158.271 1224.79 163.998 1232.57C169.726 1240.36 172.359 1249.99 171.388 1259.61C170.417 1269.22 165.91 1278.13 158.741 1284.61C151.573 1291.09 142.253 1294.68 132.589 1294.68C122.925 1294.68 113.605 1291.09 106.436 1284.61C99.2678 1278.13 94.7609 1269.22 93.7896 1259.61C92.8183 1249.99 95.4517 1240.36 101.179 1232.57C106.907 1224.79 115.321 1219.41 124.789 1217.48V1190.1L499.158 815.733V374.368H748.737V0H764.336V389.967H514.757V822.129L140.388 1196.5V1217.48ZM389.967 420.385V759.734L15.5987 1134.1V1622.26H219.162C221.094 1612.79 226.474 1604.38 234.258 1598.65C242.042 1592.93 251.675 1590.29 261.29 1591.26C270.905 1592.23 279.817 1596.74 286.298 1603.91C292.779 1611.08 296.367 1620.4 296.367 1630.06C296.367 1639.73 292.779 1649.05 286.298 1656.21C279.817 1663.38 270.905 1667.89 261.29 1668.86C251.675 1669.83 242.042 1667.2 234.258 1661.47C226.474 1655.74 221.094 1647.33 219.162 1637.86H0V1127.71L374.368 753.338V420.385C364.9 418.452 356.486 413.072 350.758 405.288C345.031 397.504 342.397 387.871 343.369 378.256C344.34 368.641 348.847 359.729 356.015 353.248C363.184 346.767 372.504 343.179 382.168 343.179C391.832 343.179 401.151 346.767 408.32 353.248C415.489 359.729 419.996 368.641 420.967 378.256C421.938 387.871 419.305 397.504 413.577 405.288C407.85 413.072 399.436 418.452 389.967 420.385ZM265.178 545.174V697.339L0 962.517V940.523L249.579 690.944V545.174C240.11 543.241 231.696 537.861 225.969 530.078C220.241 522.294 217.608 512.661 218.579 503.046C219.55 493.431 224.057 484.519 231.226 478.038C238.395 471.557 247.714 467.969 257.378 467.969C267.042 467.969 276.362 471.557 283.531 478.038C290.699 484.519 295.206 493.431 296.178 503.046C297.149 512.661 294.515 522.294 288.788 530.078C283.06 537.861 274.646 543.241 265.178 545.174ZM94.372 249.579C96.3048 240.11 101.685 231.696 109.468 225.969C117.252 220.241 126.885 217.608 136.5 218.579C146.115 219.55 155.027 224.057 161.508 231.226C167.989 238.395 171.578 247.714 171.578 257.378C171.578 267.042 167.989 276.362 161.508 283.531C155.027 290.699 146.115 295.206 136.5 296.178C126.885 297.149 117.252 294.515 109.468 288.788C101.685 283.06 96.3048 274.646 94.372 265.178H73.3918L0 338.569V316.653L66.9964 249.579H94.372ZM2167.44 389.967C2165.5 399.436 2160.12 407.85 2152.34 413.577C2144.56 419.305 2134.92 421.938 2125.31 420.967C2115.69 419.996 2106.78 415.489 2100.3 408.32C2093.82 401.151 2090.23 391.832 2090.23 382.168C2090.23 372.504 2093.82 363.184 2100.3 356.015C2106.78 348.847 2115.69 344.34 2125.31 343.369C2134.92 342.397 2144.56 345.031 2152.34 350.758C2160.12 356.486 2165.5 364.9 2167.44 374.368H2313.21L2371 316.575V338.569L2319.6 389.967H2167.44ZM2042.65 1637.86C2040.71 1647.33 2035.34 1655.74 2027.55 1661.47C2019.77 1667.2 2010.13 1669.83 2000.52 1668.86C1990.9 1667.89 1981.99 1663.38 1975.51 1656.21C1969.03 1649.05 1965.44 1639.73 1965.44 1630.06C1965.44 1620.4 1969.03 1611.08 1975.51 1603.91C1981.99 1596.74 1990.9 1592.23 2000.52 1591.26C2010.13 1590.29 2019.77 1592.93 2027.55 1598.65C2035.34 1604.38 2040.71 1612.79 2042.65 1622.26H2246.21V1065.31L2371 940.523V962.517L2261.81 1071.71V1637.86H2042.65ZM420.385 1887.44C418.452 1896.91 413.072 1905.32 405.288 1911.05C397.504 1916.78 387.871 1919.41 378.256 1918.44C368.641 1917.47 359.729 1912.96 353.248 1905.79C346.767 1898.63 343.179 1889.31 343.179 1879.64C343.179 1869.98 346.767 1860.66 353.248 1853.49C359.729 1846.32 368.641 1841.81 378.256 1840.84C387.871 1839.87 397.504 1842.5 405.288 1848.23C413.072 1853.96 418.452 1862.37 420.385 1871.84H499.158V1695.66L316.575 1513.07H170.806C168.873 1522.54 163.493 1530.95 155.709 1536.68C147.926 1542.41 138.292 1545.04 128.677 1544.07C119.062 1543.1 110.15 1538.59 103.669 1531.43C97.1884 1524.26 93.6001 1514.94 93.6001 1505.27C93.6001 1495.61 97.1884 1486.29 103.669 1479.12C110.15 1471.95 119.062 1467.45 128.677 1466.47C138.292 1465.5 147.926 1468.14 155.709 1473.86C163.493 1479.59 168.873 1488 170.806 1497.47H322.971L514.757 1689.26V1887.44H420.385ZM1591.85 1996.63C1593.78 1987.16 1599.16 1978.75 1606.94 1973.02C1614.73 1967.29 1624.36 1964.66 1633.97 1965.63C1643.59 1966.6 1652.5 1971.11 1658.98 1978.28C1665.46 1985.45 1669.05 1994.77 1669.05 2004.43C1669.05 2014.09 1665.46 2023.41 1658.98 2030.58C1652.5 2037.75 1643.59 2042.26 1633.97 2043.23C1624.36 2044.2 1614.73 2041.57 1606.94 2035.84C1599.16 2030.11 1593.78 2021.7 1591.85 2012.23H748.737V1570.79L441.443 1263.49H295.595C293.662 1272.96 288.282 1281.38 280.499 1287.1C272.715 1292.83 263.082 1295.46 253.467 1294.49C243.852 1293.52 234.94 1289.02 228.459 1281.85C221.978 1274.68 218.39 1265.36 218.39 1255.69C218.39 1246.03 221.978 1236.71 228.459 1229.54C234.94 1222.37 243.852 1217.87 253.467 1216.89C263.082 1215.92 272.715 1218.56 280.499 1224.28C288.282 1230.01 293.662 1238.43 295.595 1247.89H447.682L764.336 1564.55V1996.63H1591.85ZM420.385 2012.23C418.452 2021.7 413.072 2030.11 405.288 2035.84C397.504 2041.57 387.871 2044.2 378.256 2043.23C368.641 2042.26 359.729 2037.75 353.248 2030.58C346.767 2023.41 343.179 2014.09 343.179 2004.43C343.179 1994.77 346.767 1985.45 353.248 1978.28C359.729 1971.11 368.641 1966.6 378.256 1965.63C387.871 1964.66 397.504 1967.29 405.288 1973.02C413.072 1978.75 418.452 1987.16 420.385 1996.63H623.947V1633.26L378.97 1388.28H170.806C168.873 1397.75 163.493 1406.17 155.709 1411.89C147.926 1417.62 138.292 1420.25 128.677 1419.28C119.062 1418.31 110.15 1413.8 103.669 1406.64C97.1884 1399.47 93.6001 1390.15 93.6001 1380.48C93.6001 1370.82 97.1884 1361.5 103.669 1354.33C110.15 1347.16 119.062 1342.66 128.677 1341.68C138.292 1340.71 147.926 1343.35 155.709 1349.07C163.493 1354.8 168.873 1363.22 170.806 1372.68H385.365L639.546 1626.86V2012.23H420.385ZM265.178 310.414V322.971L73.3918 514.757H0V499.158H66.9964L249.579 316.575V0H265.178V310.414ZM15.5987 2340.58C23.093 2342.11 29.9724 2345.81 35.3808 2351.22C40.7892 2356.63 44.4877 2363.51 46.0161 2371H29.8715C28.8485 2368.1 27.2642 2365.43 25.209 2363.14C23.1538 2360.86 20.668 2359 17.8938 2357.67C15.1196 2356.35 12.1113 2355.58 9.041 2355.42C5.97066 2355.26 2.89845 2355.7 0 2356.73L0 1996.63H140.388V2371H124.789V2012.23H15.5987V2340.58ZM265.178 1879.64V2371H249.579V1887.44H0V1871.84H265.178V1879.64ZM132.589 140.388H0V124.789H124.789V0H140.388V140.388H132.589ZM2261.81 124.789H2371V140.388H2246.21V0H2261.81V124.789ZM2012.23 2254.01V2371H1996.63V2261.81H1887.44V2371H1871.84V2246.21H2012.23V2254.01ZM0 718.319C5.66323 717.192 11.5057 717.331 17.1088 718.727C22.7119 720.123 27.9368 722.741 32.4092 726.394C36.8816 730.046 40.4908 734.643 42.9781 739.854C45.4653 745.065 46.7691 750.762 46.7961 756.536C46.7972 762.32 45.5121 768.031 43.0336 773.256C40.5552 778.481 36.9455 783.09 32.4661 786.748C27.9867 790.407 22.7497 793.023 17.1345 794.407C11.5193 795.791 5.66651 795.91 0 794.753L0 778.608C3.52817 779.849 7.30247 780.227 11.0065 779.709C14.7105 779.19 18.2364 777.792 21.2885 775.63C24.3406 773.468 26.8299 770.606 28.548 767.284C30.266 763.962 31.1626 760.276 31.1626 756.536C31.1626 752.796 30.266 749.11 28.548 745.788C26.8299 742.466 24.3406 739.604 21.2885 737.442C18.2364 735.281 14.7105 733.882 11.0065 733.364C7.30247 732.846 3.52817 733.223 0 734.464L0 718.319ZM623.947 2121.42H639.546V2371H623.947V2121.42ZM919.542 2371H903.398C901.79 2366.43 898.803 2362.47 894.85 2359.67C890.896 2356.87 886.171 2355.37 881.326 2355.37C876.481 2355.37 871.755 2356.87 867.802 2359.67C863.848 2362.47 860.861 2366.43 859.254 2371H843.109C844.899 2362.18 849.682 2354.26 856.647 2348.57C863.611 2342.87 872.33 2339.76 881.326 2339.76C890.321 2339.76 899.04 2342.87 906.005 2348.57C912.97 2354.26 917.752 2362.18 919.542 2371ZM46.0161 0C47.2667 6.31113 46.9427 12.8332 45.0728 18.9893C43.2029 25.1454 39.8447 30.7459 35.2953 35.2953C30.7459 39.8447 25.1454 43.2029 18.9893 45.0728C12.8332 46.9427 6.31113 47.2667 0 46.0161L0 29.8715C4.16655 31.3486 8.66631 31.6152 12.9781 30.6403C17.2899 29.6655 21.2374 27.4891 24.3632 24.3632C27.4891 21.2374 29.6655 17.2899 30.6403 12.9781C31.6152 8.66631 31.3486 4.16655 29.8715 0L46.0161 0ZM2340.58 0H2356.73C2355.7 2.89845 2355.26 5.97066 2355.42 9.041C2355.58 12.1113 2356.35 15.1196 2357.67 17.8938C2359 20.668 2360.86 23.1538 2363.14 25.209C2365.43 27.2642 2368.1 28.8485 2371 29.8715V46.0161C2365.98 44.9928 2361.21 42.9907 2356.97 40.1242C2352.72 37.2576 2349.08 33.5827 2346.26 29.3095C2343.43 25.0363 2341.48 20.2484 2340.5 15.2194C2339.53 10.1904 2339.56 5.01878 2340.58 0ZM2371 2340.58V2356.73C2367.71 2357.89 2364.72 2359.78 2362.25 2362.25C2359.78 2364.72 2357.89 2367.71 2356.73 2371H2340.58C2342.11 2363.51 2345.81 2356.63 2351.22 2351.22C2356.63 2345.81 2363.51 2342.11 2371 2340.58ZM756.536 779.934C759.609 779.934 762.651 779.329 765.49 778.153C768.329 776.977 770.908 775.254 773.081 773.081C775.254 770.908 776.977 768.329 778.153 765.49C779.329 762.651 779.934 759.609 779.934 756.536C779.934 753.464 779.329 750.421 778.153 747.582C776.977 744.743 775.254 742.164 773.081 739.991C770.908 737.819 768.329 736.095 765.49 734.919C762.651 733.743 759.609 733.138 756.536 733.138C750.331 733.138 744.379 735.603 739.991 739.991C735.603 744.379 733.138 750.331 733.138 756.536C733.138 762.742 735.603 768.693 739.991 773.081C744.379 777.469 750.331 779.934 756.536 779.934ZM756.536 655.145C762.742 655.145 768.693 652.68 773.081 648.292C777.469 643.904 779.934 637.952 779.934 631.747C779.934 625.541 777.469 619.59 773.081 615.202C768.693 610.814 762.742 608.349 756.536 608.349C750.331 608.349 744.379 610.814 739.991 615.202C735.603 619.59 733.138 625.541 733.138 631.747C733.138 637.952 735.603 643.904 739.991 648.292C744.379 652.68 750.331 655.145 756.536 655.145ZM881.326 779.934C884.398 779.934 887.441 779.329 890.28 778.153C893.118 776.977 895.698 775.254 897.871 773.081C900.043 770.908 901.767 768.329 902.943 765.49C904.118 762.651 904.724 759.609 904.724 756.536C904.724 753.464 904.118 750.421 902.943 747.582C901.767 744.743 900.043 742.164 897.871 739.991C895.698 737.819 893.118 736.095 890.28 734.919C887.441 733.743 884.398 733.138 881.326 733.138C875.12 733.138 869.169 735.603 864.781 739.991C860.393 744.379 857.928 750.331 857.928 756.536C857.928 762.742 860.393 768.693 864.781 773.081C869.169 777.469 875.12 779.934 881.326 779.934ZM1006.12 904.724C1012.32 904.724 1018.27 902.259 1022.66 897.871C1027.05 893.483 1029.51 887.531 1029.51 881.326C1029.51 875.12 1027.05 869.169 1022.66 864.781C1018.27 860.393 1012.32 857.928 1006.12 857.928C999.91 857.928 993.958 860.393 989.57 864.781C985.182 869.169 982.717 875.12 982.717 881.326C982.717 887.531 985.182 893.483 989.57 897.871C993.958 902.259 999.91 904.724 1006.12 904.724ZM1006.12 1029.51C1012.32 1029.51 1018.27 1027.05 1022.66 1022.66C1027.05 1018.27 1029.51 1012.32 1029.51 1006.12C1029.51 999.91 1027.05 993.958 1022.66 989.57C1018.27 985.182 1012.32 982.717 1006.12 982.717C999.91 982.717 993.958 985.182 989.57 989.57C985.182 993.958 982.717 999.91 982.717 1006.12C982.717 1012.32 985.182 1018.27 989.57 1022.66C993.958 1027.05 999.91 1029.51 1006.12 1029.51ZM631.747 1279.09C637.952 1279.09 643.904 1276.63 648.292 1272.24C652.68 1267.85 655.145 1261.9 655.145 1255.69C655.145 1249.49 652.68 1243.54 648.292 1239.15C643.904 1234.76 637.952 1232.3 631.747 1232.3C625.541 1232.3 619.59 1234.76 615.202 1239.15C610.814 1243.54 608.349 1249.49 608.349 1255.69C608.349 1261.9 610.814 1267.85 615.202 1272.24C619.59 1276.63 625.541 1279.09 631.747 1279.09ZM756.536 1403.88C762.742 1403.88 768.693 1401.42 773.081 1397.03C777.469 1392.64 779.934 1386.69 779.934 1380.48C779.934 1374.28 777.469 1368.33 773.081 1363.94C768.693 1359.55 762.742 1357.09 756.536 1357.09C750.331 1357.09 744.379 1359.55 739.991 1363.94C735.603 1368.33 733.138 1374.28 733.138 1380.48C733.138 1386.69 735.603 1392.64 739.991 1397.03C744.379 1401.42 750.331 1403.88 756.536 1403.88ZM1006.12 1778.25C1012.32 1778.25 1018.27 1775.78 1022.66 1771.4C1027.05 1767.01 1029.51 1761.06 1029.51 1754.85C1029.51 1748.65 1027.05 1742.7 1022.66 1738.31C1018.27 1733.92 1012.32 1731.45 1006.12 1731.45C999.91 1731.45 993.958 1733.92 989.57 1738.31C985.182 1742.7 982.717 1748.65 982.717 1754.85C982.717 1761.06 985.182 1767.01 989.57 1771.4C993.958 1775.78 999.91 1778.25 1006.12 1778.25ZM881.326 1903.04C887.531 1903.04 893.483 1900.57 897.871 1896.19C902.259 1891.8 904.724 1885.85 904.724 1879.64C904.724 1873.44 902.259 1867.48 897.871 1863.1C893.483 1858.71 887.531 1856.24 881.326 1856.24C875.12 1856.24 869.169 1858.71 864.781 1863.1C860.393 1867.48 857.928 1873.44 857.928 1879.64C857.928 1885.85 860.393 1891.8 864.781 1896.19C869.169 1900.57 875.12 1903.04 881.326 1903.04ZM1130.9 1778.25C1137.11 1778.25 1143.06 1775.78 1147.45 1771.4C1151.84 1767.01 1154.3 1761.06 1154.3 1754.85C1154.3 1748.65 1151.84 1742.7 1147.45 1738.31C1143.06 1733.92 1137.11 1731.45 1130.9 1731.45C1124.7 1731.45 1118.75 1733.92 1114.36 1738.31C1109.97 1742.7 1107.51 1748.65 1107.51 1754.85C1107.51 1761.06 1109.97 1767.01 1114.36 1771.4C1118.75 1775.78 1124.7 1778.25 1130.9 1778.25ZM1130.9 1528.67C1137.11 1528.67 1143.06 1526.21 1147.45 1521.82C1151.84 1517.43 1154.3 1511.48 1154.3 1505.27C1154.3 1499.07 1151.84 1493.12 1147.45 1488.73C1143.06 1484.34 1137.11 1481.88 1130.9 1481.88C1124.7 1481.88 1118.75 1484.34 1114.36 1488.73C1109.97 1493.12 1107.51 1499.07 1107.51 1505.27C1107.51 1511.48 1109.97 1517.43 1114.36 1521.82C1118.75 1526.21 1124.7 1528.67 1130.9 1528.67ZM1255.69 1778.25C1261.9 1778.25 1267.85 1775.78 1272.24 1771.4C1276.63 1767.01 1279.09 1761.06 1279.09 1754.85C1279.09 1748.65 1276.63 1742.7 1272.24 1738.31C1267.85 1733.92 1261.9 1731.45 1255.69 1731.45C1249.49 1731.45 1243.54 1733.92 1239.15 1738.31C1234.76 1742.7 1232.3 1748.65 1232.3 1754.85C1232.3 1761.06 1234.76 1767.01 1239.15 1771.4C1243.54 1775.78 1249.49 1778.25 1255.69 1778.25ZM1505.27 1903.04C1511.48 1903.04 1517.43 1900.57 1521.82 1896.19C1526.21 1891.8 1528.67 1885.85 1528.67 1879.64C1528.67 1873.44 1526.21 1867.48 1521.82 1863.1C1517.43 1858.71 1511.48 1856.24 1505.27 1856.24C1499.07 1856.24 1493.12 1858.71 1488.73 1863.1C1484.34 1867.48 1481.88 1873.44 1481.88 1879.64C1481.88 1885.85 1484.34 1891.8 1488.73 1896.19C1493.12 1900.57 1499.07 1903.04 1505.27 1903.04ZM1505.27 1778.25C1511.48 1778.25 1517.43 1775.78 1521.82 1771.4C1526.21 1767.01 1528.67 1761.06 1528.67 1754.85C1528.67 1748.65 1526.21 1742.7 1521.82 1738.31C1517.43 1733.92 1511.48 1731.45 1505.27 1731.45C1499.07 1731.45 1493.12 1733.92 1488.73 1738.31C1484.34 1742.7 1481.88 1748.65 1481.88 1754.85C1481.88 1761.06 1484.34 1767.01 1488.73 1771.4C1493.12 1775.78 1499.07 1778.25 1505.27 1778.25ZM1380.48 1279.09C1386.69 1279.09 1392.64 1276.63 1397.03 1272.24C1401.42 1267.85 1403.88 1261.9 1403.88 1255.69C1403.88 1249.49 1401.42 1243.54 1397.03 1239.15C1392.64 1234.76 1386.69 1232.3 1380.48 1232.3C1374.28 1232.3 1368.33 1234.76 1363.94 1239.15C1359.55 1243.54 1357.09 1249.49 1357.09 1255.69C1357.09 1261.9 1359.55 1267.85 1363.94 1272.24C1368.33 1276.63 1374.28 1279.09 1380.48 1279.09ZM1505.27 1279.09C1511.48 1279.09 1517.43 1276.63 1521.82 1272.24C1526.21 1267.85 1528.67 1261.9 1528.67 1255.69C1528.67 1249.49 1526.21 1243.54 1521.82 1239.15C1517.43 1234.76 1511.48 1232.3 1505.27 1232.3C1499.07 1232.3 1493.12 1234.76 1488.73 1239.15C1484.34 1243.54 1481.88 1249.49 1481.88 1255.69C1481.88 1261.9 1484.34 1267.85 1488.73 1272.24C1493.12 1276.63 1499.07 1279.09 1505.27 1279.09ZM1630.06 2027.83C1636.27 2027.83 1642.22 2025.36 1646.61 2020.98C1651 2016.59 1653.46 2010.64 1653.46 2004.43C1653.46 1998.23 1651 1992.27 1646.61 1987.89C1642.22 1983.5 1636.27 1981.03 1630.06 1981.03C1623.86 1981.03 1617.91 1983.5 1613.52 1987.89C1609.13 1992.27 1606.66 1998.23 1606.66 2004.43C1606.66 2010.64 1609.13 2016.59 1613.52 2020.98C1617.91 2025.36 1623.86 2027.83 1630.06 2027.83ZM1630.06 2152.62C1636.27 2152.62 1642.22 2150.15 1646.61 2145.77C1651 2141.38 1653.46 2135.43 1653.46 2129.22C1653.46 2123.01 1651 2117.06 1646.61 2112.68C1642.22 2108.29 1636.27 2105.82 1630.06 2105.82C1623.86 2105.82 1617.91 2108.29 1613.52 2112.68C1609.13 2117.06 1606.66 2123.01 1606.66 2129.22C1606.66 2135.43 1609.13 2141.38 1613.52 2145.77C1617.91 2150.15 1623.86 2152.62 1630.06 2152.62ZM1754.85 2277.41C1761.06 2277.41 1767.01 2274.94 1771.4 2270.55C1775.78 2266.17 1778.25 2260.22 1778.25 2254.01C1778.25 2247.8 1775.78 2241.85 1771.4 2237.47C1767.01 2233.08 1761.06 2230.61 1754.85 2230.61C1748.65 2230.61 1742.7 2233.08 1738.31 2237.47C1733.92 2241.85 1731.45 2247.8 1731.45 2254.01C1731.45 2260.22 1733.92 2266.17 1738.31 2270.55C1742.7 2274.94 1748.65 2277.41 1754.85 2277.41ZM1879.64 1154.3C1885.85 1154.3 1891.8 1151.84 1896.19 1147.45C1900.57 1143.06 1903.04 1137.11 1903.04 1130.9C1903.04 1124.7 1900.57 1118.75 1896.19 1114.36C1891.8 1109.97 1885.85 1107.51 1879.64 1107.51C1873.44 1107.51 1867.48 1109.97 1863.1 1114.36C1858.71 1118.75 1856.24 1124.7 1856.24 1130.9C1856.24 1137.11 1858.71 1143.06 1863.1 1147.45C1867.48 1151.84 1873.44 1154.3 1879.64 1154.3ZM1879.64 1403.88C1885.85 1403.88 1891.8 1401.42 1896.19 1397.03C1900.57 1392.64 1903.04 1386.69 1903.04 1380.48C1903.04 1374.28 1900.57 1368.33 1896.19 1363.94C1891.8 1359.55 1885.85 1357.09 1879.64 1357.09C1873.44 1357.09 1867.48 1359.55 1863.1 1363.94C1858.71 1368.33 1856.24 1374.28 1856.24 1380.48C1856.24 1386.69 1858.71 1392.64 1863.1 1397.03C1867.48 1401.42 1873.44 1403.88 1879.64 1403.88ZM2004.43 1154.3C2010.64 1154.3 2016.59 1151.84 2020.98 1147.45C2025.36 1143.06 2027.83 1137.11 2027.83 1130.9C2027.83 1124.7 2025.36 1118.75 2020.98 1114.36C2016.59 1109.97 2010.64 1107.51 2004.43 1107.51C1998.23 1107.51 1992.27 1109.97 1987.89 1114.36C1983.5 1118.75 1981.03 1124.7 1981.03 1130.9C1981.03 1137.11 1983.5 1143.06 1987.89 1147.45C1992.27 1151.84 1998.23 1154.3 2004.43 1154.3ZM2129.22 1029.51C2135.43 1029.51 2141.38 1027.05 2145.77 1022.66C2150.15 1018.27 2152.62 1012.32 2152.62 1006.12C2152.62 999.91 2150.15 993.958 2145.77 989.57C2141.38 985.182 2135.43 982.717 2129.22 982.717C2123.01 982.717 2117.06 985.182 2112.68 989.57C2108.29 993.958 2105.82 999.91 2105.82 1006.12C2105.82 1012.32 2108.29 1018.27 2112.68 1022.66C2117.06 1027.05 2123.01 1029.51 2129.22 1029.51ZM1380.48 1029.51C1386.69 1029.51 1392.64 1027.05 1397.03 1022.66C1401.42 1018.27 1403.88 1012.32 1403.88 1006.12C1403.88 999.91 1401.42 993.958 1397.03 989.57C1392.64 985.182 1386.69 982.717 1380.48 982.717C1374.28 982.717 1368.33 985.182 1363.94 989.57C1359.55 993.958 1357.09 999.91 1357.09 1006.12C1357.09 1012.32 1359.55 1018.27 1363.94 1022.66C1368.33 1027.05 1374.28 1029.51 1380.48 1029.51ZM1380.48 1154.3C1386.69 1154.3 1392.64 1151.84 1397.03 1147.45C1401.42 1143.06 1403.88 1137.11 1403.88 1130.9C1403.88 1124.7 1401.42 1118.75 1397.03 1114.36C1392.64 1109.97 1386.69 1107.51 1380.48 1107.51C1374.28 1107.51 1368.33 1109.97 1363.94 1114.36C1359.55 1118.75 1357.09 1124.7 1357.09 1130.9C1357.09 1137.11 1359.55 1143.06 1363.94 1147.45C1368.33 1151.84 1374.28 1154.3 1380.48 1154.3ZM1505.27 904.724C1511.48 904.724 1517.43 902.259 1521.82 897.871C1526.21 893.483 1528.67 887.531 1528.67 881.326C1528.67 875.12 1526.21 869.169 1521.82 864.781C1517.43 860.393 1511.48 857.928 1505.27 857.928C1499.07 857.928 1493.12 860.393 1488.73 864.781C1484.34 869.169 1481.88 875.12 1481.88 881.326C1481.88 887.531 1484.34 893.483 1488.73 897.871C1493.12 902.259 1499.07 904.724 1505.27 904.724ZM2254.01 904.724C2260.22 904.724 2266.17 902.259 2270.55 897.871C2274.94 893.483 2277.41 887.531 2277.41 881.326C2277.41 875.12 2274.94 869.169 2270.55 864.781C2266.17 860.393 2260.22 857.928 2254.01 857.928C2247.8 857.928 2241.85 860.393 2237.47 864.781C2233.08 869.169 2230.61 875.12 2230.61 881.326C2230.61 887.531 2233.08 893.483 2237.47 897.871C2241.85 902.259 2247.8 904.724 2254.01 904.724ZM2129.22 405.566C2135.43 405.566 2141.38 403.101 2145.77 398.713C2150.15 394.325 2152.62 388.373 2152.62 382.168C2152.62 375.962 2150.15 370.011 2145.77 365.623C2141.38 361.235 2135.43 358.77 2129.22 358.77C2123.01 358.77 2117.06 361.235 2112.68 365.623C2108.29 370.011 2105.82 375.962 2105.82 382.168C2105.82 388.373 2108.29 394.325 2112.68 398.713C2117.06 403.101 2123.01 405.566 2129.22 405.566ZM2254.01 280.776C2260.22 280.776 2266.17 278.311 2270.55 273.923C2274.94 269.535 2277.41 263.584 2277.41 257.378C2277.41 251.173 2274.94 245.221 2270.55 240.833C2266.17 236.445 2260.22 233.98 2254.01 233.98C2247.8 233.98 2241.85 236.445 2237.47 240.833C2233.08 245.221 2230.61 251.173 2230.61 257.378C2230.61 263.584 2233.08 269.535 2237.47 273.923C2241.85 278.311 2247.8 280.776 2254.01 280.776ZM2004.43 280.776C2010.64 280.776 2016.59 278.311 2020.98 273.923C2025.36 269.535 2027.83 263.584 2027.83 257.378C2027.83 251.173 2025.36 245.221 2020.98 240.833C2016.59 236.445 2010.64 233.98 2004.43 233.98C1998.23 233.98 1992.27 236.445 1987.89 240.833C1983.5 245.221 1981.03 251.173 1981.03 257.378C1981.03 263.584 1983.5 269.535 1987.89 273.923C1992.27 278.311 1998.23 280.776 2004.43 280.776ZM2004.43 155.987C2010.64 155.987 2016.59 153.522 2020.98 149.134C2025.36 144.746 2027.83 138.794 2027.83 132.589C2027.83 126.383 2025.36 120.432 2020.98 116.044C2016.59 111.656 2010.64 109.191 2004.43 109.191C1998.23 109.191 1992.27 111.656 1987.89 116.044C1983.5 120.432 1981.03 126.383 1981.03 132.589C1981.03 138.794 1983.5 144.746 1987.89 149.134C1992.27 153.522 1998.23 155.987 2004.43 155.987ZM1879.64 155.987C1885.85 155.987 1891.8 153.522 1896.19 149.134C1900.57 144.746 1903.04 138.794 1903.04 132.589C1903.04 126.383 1900.57 120.432 1896.19 116.044C1891.8 111.656 1885.85 109.191 1879.64 109.191C1873.44 109.191 1867.48 111.656 1863.1 116.044C1858.71 120.432 1856.24 126.383 1856.24 132.589C1856.24 138.794 1858.71 144.746 1863.1 149.134C1867.48 153.522 1873.44 155.987 1879.64 155.987ZM1754.85 155.987C1761.06 155.987 1767.01 153.522 1771.4 149.134C1775.78 144.746 1778.25 138.794 1778.25 132.589C1778.25 126.383 1775.78 120.432 1771.4 116.044C1767.01 111.656 1761.06 109.191 1754.85 109.191C1748.65 109.191 1742.7 111.656 1738.31 116.044C1733.92 120.432 1731.45 126.383 1731.45 132.589C1731.45 138.794 1733.92 144.746 1738.31 149.134C1742.7 153.522 1748.65 155.987 1754.85 155.987ZM1630.06 155.987C1636.27 155.987 1642.22 153.522 1646.61 149.134C1651 144.746 1653.46 138.794 1653.46 132.589C1653.46 126.383 1651 120.432 1646.61 116.044C1642.22 111.656 1636.27 109.191 1630.06 109.191C1623.86 109.191 1617.91 111.656 1613.52 116.044C1609.13 120.432 1606.66 126.383 1606.66 132.589C1606.66 138.794 1609.13 144.746 1613.52 149.134C1617.91 153.522 1623.86 155.987 1630.06 155.987ZM382.168 280.776C388.373 280.776 394.325 278.311 398.713 273.923C403.101 269.535 405.566 263.584 405.566 257.378C405.566 251.173 403.101 245.221 398.713 240.833C394.325 236.445 388.373 233.98 382.168 233.98C375.962 233.98 370.011 236.445 365.623 240.833C361.235 245.221 358.77 251.173 358.77 257.378C358.77 263.584 361.235 269.535 365.623 273.923C370.011 278.311 375.962 280.776 382.168 280.776ZM132.589 280.776C138.794 280.776 144.746 278.311 149.134 273.923C153.522 269.535 155.987 263.584 155.987 257.378C155.987 251.173 153.522 245.221 149.134 240.833C144.746 236.445 138.794 233.98 132.589 233.98C126.383 233.98 120.432 236.445 116.044 240.833C111.656 245.221 109.191 251.173 109.191 257.378C109.191 263.584 111.656 269.535 116.044 273.923C120.432 278.311 126.383 280.776 132.589 280.776ZM382.168 405.566C388.373 405.566 394.325 403.101 398.713 398.713C403.101 394.325 405.566 388.373 405.566 382.168C405.566 375.962 403.101 370.011 398.713 365.623C394.325 361.235 388.373 358.77 382.168 358.77C375.962 358.77 370.011 361.235 365.623 365.623C361.235 370.011 358.77 375.962 358.77 382.168C358.77 388.373 361.235 394.325 365.623 398.713C370.011 403.101 375.962 405.566 382.168 405.566ZM257.378 530.355C263.584 530.355 269.535 527.89 273.923 523.502C278.311 519.114 280.776 513.163 280.776 506.957C280.776 500.752 278.311 494.8 273.923 490.412C269.535 486.024 263.584 483.559 257.378 483.559C251.173 483.559 245.221 486.024 240.833 490.412C236.445 494.8 233.98 500.752 233.98 506.957C233.98 513.163 236.445 519.114 240.833 523.502C245.221 527.89 251.173 530.355 257.378 530.355ZM382.168 155.987C388.373 155.987 394.325 153.522 398.713 149.134C403.101 144.746 405.566 138.794 405.566 132.589C405.566 126.383 403.101 120.432 398.713 116.044C394.325 111.656 388.373 109.191 382.168 109.191C375.962 109.191 370.011 111.656 365.623 116.044C361.235 120.432 358.77 126.383 358.77 132.589C358.77 138.794 361.235 144.746 365.623 149.134C370.011 153.522 375.962 155.987 382.168 155.987ZM382.168 2027.83C388.373 2027.83 394.325 2025.36 398.713 2020.98C403.101 2016.59 405.566 2010.64 405.566 2004.43C405.566 1998.23 403.101 1992.27 398.713 1987.89C394.325 1983.5 388.373 1981.03 382.168 1981.03C375.962 1981.03 370.011 1983.5 365.623 1987.89C361.235 1992.27 358.77 1998.23 358.77 2004.43C358.77 2010.64 361.235 2016.59 365.623 2020.98C370.011 2025.36 375.962 2027.83 382.168 2027.83ZM506.957 2277.41C513.163 2277.41 519.114 2274.94 523.502 2270.55C527.89 2266.17 530.355 2260.22 530.355 2254.01C530.355 2247.8 527.89 2241.85 523.502 2237.47C519.114 2233.08 513.163 2230.61 506.957 2230.61C500.752 2230.61 494.8 2233.08 490.412 2237.47C486.024 2241.85 483.559 2247.8 483.559 2254.01C483.559 2260.22 486.024 2266.17 490.412 2270.55C494.8 2274.94 500.752 2277.41 506.957 2277.41ZM382.168 1778.25C388.373 1778.25 394.325 1775.78 398.713 1771.4C403.101 1767.01 405.566 1761.06 405.566 1754.85C405.566 1748.65 403.101 1742.7 398.713 1738.31C394.325 1733.92 388.373 1731.45 382.168 1731.45C375.962 1731.45 370.011 1733.92 365.623 1738.31C361.235 1742.7 358.77 1748.65 358.77 1754.85C358.77 1761.06 361.235 1767.01 365.623 1771.4C370.011 1775.78 375.962 1778.25 382.168 1778.25ZM382.168 1903.04C388.373 1903.04 394.325 1900.57 398.713 1896.19C403.101 1891.8 405.566 1885.85 405.566 1879.64C405.566 1873.44 403.101 1867.48 398.713 1863.1C394.325 1858.71 388.373 1856.24 382.168 1856.24C375.962 1856.24 370.011 1858.71 365.623 1863.1C361.235 1867.48 358.77 1873.44 358.77 1879.64C358.77 1885.85 361.235 1891.8 365.623 1896.19C370.011 1900.57 375.962 1903.04 382.168 1903.04ZM257.378 1653.46C263.584 1653.46 269.535 1651 273.923 1646.61C278.311 1642.22 280.776 1636.27 280.776 1630.06C280.776 1623.86 278.311 1617.91 273.923 1613.52C269.535 1609.13 263.584 1606.66 257.378 1606.66C251.173 1606.66 245.221 1609.13 240.833 1613.52C236.445 1617.91 233.98 1623.86 233.98 1630.06C233.98 1636.27 236.445 1642.22 240.833 1646.61C245.221 1651 251.173 1653.46 257.378 1653.46ZM881.326 280.776C887.531 280.776 893.483 278.311 897.871 273.923C902.259 269.535 904.724 263.584 904.724 257.378C904.724 251.173 902.259 245.221 897.871 240.833C893.483 236.445 887.531 233.98 881.326 233.98C875.12 233.98 869.169 236.445 864.781 240.833C860.393 245.221 857.928 251.173 857.928 257.378C857.928 263.584 860.393 269.535 864.781 273.923C869.169 278.311 875.12 280.776 881.326 280.776ZM1006.12 280.776C1012.32 280.776 1018.27 278.311 1022.66 273.923C1027.05 269.535 1029.51 263.584 1029.51 257.378C1029.51 251.173 1027.05 245.221 1022.66 240.833C1018.27 236.445 1012.32 233.98 1006.12 233.98C999.91 233.98 993.958 236.445 989.57 240.833C985.182 245.221 982.717 251.173 982.717 257.378C982.717 263.584 985.182 269.535 989.57 273.923C993.958 278.311 999.91 280.776 1006.12 280.776ZM881.326 155.987C887.531 155.987 893.483 153.522 897.871 149.134C902.259 144.746 904.724 138.794 904.724 132.589C904.724 126.383 902.259 120.432 897.871 116.044C893.483 111.656 887.531 109.191 881.326 109.191C875.12 109.191 869.169 111.656 864.781 116.044C860.393 120.432 857.928 126.383 857.928 132.589C857.928 138.794 860.393 144.746 864.781 149.134C869.169 153.522 875.12 155.987 881.326 155.987ZM1130.9 530.355C1137.11 530.355 1143.06 527.89 1147.45 523.502C1151.84 519.114 1154.3 513.163 1154.3 506.957C1154.3 500.752 1151.84 494.8 1147.45 490.412C1143.06 486.024 1137.11 483.559 1130.9 483.559C1124.7 483.559 1118.75 486.024 1114.36 490.412C1109.97 494.8 1107.51 500.752 1107.51 506.957C1107.51 513.163 1109.97 519.114 1114.36 523.502C1118.75 527.89 1124.7 530.355 1130.9 530.355ZM1255.69 405.566C1261.9 405.566 1267.85 403.101 1272.24 398.713C1276.63 394.325 1279.09 388.373 1279.09 382.168C1279.09 375.962 1276.63 370.011 1272.24 365.623C1267.85 361.235 1261.9 358.77 1255.69 358.77C1249.49 358.77 1243.54 361.235 1239.15 365.623C1234.76 370.011 1232.3 375.962 1232.3 382.168C1232.3 388.373 1234.76 394.325 1239.15 398.713C1243.54 403.101 1249.49 405.566 1255.69 405.566ZM1255.69 155.987C1261.9 155.987 1267.85 153.522 1272.24 149.134C1276.63 144.746 1279.09 138.794 1279.09 132.589C1279.09 126.383 1276.63 120.432 1272.24 116.044C1267.85 111.656 1261.9 109.191 1255.69 109.191C1249.49 109.191 1243.54 111.656 1239.15 116.044C1234.76 120.432 1232.3 126.383 1232.3 132.589C1232.3 138.794 1234.76 144.746 1239.15 149.134C1243.54 153.522 1249.49 155.987 1255.69 155.987ZM2129.22 1528.67C2135.43 1528.67 2141.38 1526.21 2145.77 1521.82C2150.15 1517.43 2152.62 1511.48 2152.62 1505.27C2152.62 1499.07 2150.15 1493.12 2145.77 1488.73C2141.38 1484.34 2135.43 1481.88 2129.22 1481.88C2123.01 1481.88 2117.06 1484.34 2112.68 1488.73C2108.29 1493.12 2105.82 1499.07 2105.82 1505.27C2105.82 1511.48 2108.29 1517.43 2112.68 1521.82C2117.06 1526.21 2123.01 1528.67 2129.22 1528.67ZM2004.43 1653.46C2010.64 1653.46 2016.59 1651 2020.98 1646.61C2025.36 1642.22 2027.83 1636.27 2027.83 1630.06C2027.83 1623.86 2025.36 1617.91 2020.98 1613.52C2016.59 1609.13 2010.64 1606.66 2004.43 1606.66C1998.23 1606.66 1992.27 1609.13 1987.89 1613.52C1983.5 1617.91 1981.03 1623.86 1981.03 1630.06C1981.03 1636.27 1983.5 1642.22 1987.89 1646.61C1992.27 1651 1998.23 1653.46 2004.43 1653.46ZM2004.43 1778.25C2010.64 1778.25 2016.59 1775.78 2020.98 1771.4C2025.36 1767.01 2027.83 1761.06 2027.83 1754.85C2027.83 1748.65 2025.36 1742.7 2020.98 1738.31C2016.59 1733.92 2010.64 1731.45 2004.43 1731.45C1998.23 1731.45 1992.27 1733.92 1987.89 1738.31C1983.5 1742.7 1981.03 1748.65 1981.03 1754.85C1981.03 1761.06 1983.5 1767.01 1987.89 1771.4C1992.27 1775.78 1998.23 1778.25 2004.43 1778.25ZM2004.43 1903.04C2010.64 1903.04 2016.59 1900.57 2020.98 1896.19C2025.36 1891.8 2027.83 1885.85 2027.83 1879.64C2027.83 1873.44 2025.36 1867.48 2020.98 1863.1C2016.59 1858.71 2010.64 1856.24 2004.43 1856.24C1998.23 1856.24 1992.27 1858.71 1987.89 1863.1C1983.5 1867.48 1981.03 1873.44 1981.03 1879.64C1981.03 1885.85 1983.5 1891.8 1987.89 1896.19C1992.27 1900.57 1998.23 1903.04 2004.43 1903.04ZM132.589 1403.88C138.794 1403.88 144.746 1401.42 149.134 1397.03C153.522 1392.64 155.987 1386.69 155.987 1380.48C155.987 1374.28 153.522 1368.33 149.134 1363.94C144.746 1359.55 138.794 1357.09 132.589 1357.09C126.383 1357.09 120.432 1359.55 116.044 1363.94C111.656 1368.33 109.191 1374.28 109.191 1380.48C109.191 1386.69 111.656 1392.64 116.044 1397.03C120.432 1401.42 126.383 1403.88 132.589 1403.88ZM132.589 1528.67C138.794 1528.67 144.746 1526.21 149.134 1521.82C153.522 1517.43 155.987 1511.48 155.987 1505.27C155.987 1499.07 153.522 1493.12 149.134 1488.73C144.746 1484.34 138.794 1481.88 132.589 1481.88C126.383 1481.88 120.432 1484.34 116.044 1488.73C111.656 1493.12 109.191 1499.07 109.191 1505.27C109.191 1511.48 111.656 1517.43 116.044 1521.82C120.432 1526.21 126.383 1528.67 132.589 1528.67ZM132.589 1279.09C138.794 1279.09 144.746 1276.63 149.134 1272.24C153.522 1267.85 155.987 1261.9 155.987 1255.69C155.987 1249.49 153.522 1243.54 149.134 1239.15C144.746 1234.76 138.794 1232.3 132.589 1232.3C126.383 1232.3 120.432 1234.76 116.044 1239.15C111.656 1243.54 109.191 1249.49 109.191 1255.69C109.191 1261.9 111.656 1267.85 116.044 1272.24C120.432 1276.63 126.383 1279.09 132.589 1279.09ZM257.378 1279.09C263.584 1279.09 269.535 1276.63 273.923 1272.24C278.311 1267.85 280.776 1261.9 280.776 1255.69C280.776 1249.49 278.311 1243.54 273.923 1239.15C269.535 1234.76 263.584 1232.3 257.378 1232.3C251.173 1232.3 245.221 1234.76 240.833 1239.15C236.445 1243.54 233.98 1249.49 233.98 1255.69C233.98 1261.9 236.445 1267.85 240.833 1272.24C245.221 1276.63 251.173 1279.09 257.378 1279.09ZM132.589 655.145C138.794 655.145 144.746 652.68 149.134 648.292C153.522 643.904 155.987 637.952 155.987 631.747C155.987 625.541 153.522 619.59 149.134 615.202C144.746 610.814 138.794 608.349 132.589 608.349C126.383 608.349 120.432 610.814 116.044 615.202C111.656 619.59 109.191 625.541 109.191 631.747C109.191 637.952 111.656 643.904 116.044 648.292C120.432 652.68 126.383 655.145 132.589 655.145ZM382.168 1154.3C388.373 1154.3 394.325 1151.84 398.713 1147.45C403.101 1143.06 405.566 1137.11 405.566 1130.9C405.566 1124.7 403.101 1118.75 398.713 1114.36C394.325 1109.97 388.373 1107.51 382.168 1107.51C375.962 1107.51 370.011 1109.97 365.623 1114.36C361.235 1118.75 358.77 1124.7 358.77 1130.9C358.77 1137.11 361.235 1143.06 365.623 1147.45C370.011 1151.84 375.962 1154.3 382.168 1154.3ZM506.957 1029.51C513.163 1029.51 519.114 1027.05 523.502 1022.66C527.89 1018.27 530.355 1012.32 530.355 1006.12C530.355 999.91 527.89 993.958 523.502 989.57C519.114 985.182 513.163 982.717 506.957 982.717C500.752 982.717 494.8 985.182 490.412 989.57C486.024 993.958 483.559 999.91 483.559 1006.12C483.559 1012.32 486.024 1018.27 490.412 1022.66C494.8 1027.05 500.752 1029.51 506.957 1029.51Z" fill="#303785" fill-opacity="0.5"/>
</g>
<defs>
<clipPath id="clip0_845_47">
<rect width="2371" height="2371" fill="white"/>
</clipPath>
</defs>
</svg>
