<svg xmlns="http://www.w3.org/2000/svg" version="1.1" xmlns:xlink="http://www.w3.org/1999/xlink" xmlns:svgjs="http://svgjs.com/svgjs" width="1440" height="560" preserveAspectRatio="none" viewBox="0 0 1440 560"><g mask="url(&quot;#SvgjsMask1184&quot;)" fill="none"><rect width="1440" height="560" x="0" y="0" fill="rgba(1, 0, 41, 1)"></rect><path d="M166.95 142.19L262.21 197.19L262.21 307.19L166.95 362.19L71.68 307.19L71.68 197.19zM357.48 142.19L452.74 197.19L452.74 307.19L357.48 362.19L262.21 307.19L262.21 197.19zM738.54 142.19L833.8 197.19L833.8 307.19L738.54 362.19L643.27 307.19L643.27 197.19zM738.54 472.19L833.8 527.19L833.8 637.19L738.54 692.19L643.27 637.19L643.27 527.19zM833.8 -22.81L929.07 32.19L929.07 142.19L833.8 197.19L738.54 142.19L738.54 32.19zM1024.34 -22.81L1119.6 32.19L1119.6 142.19L1024.34 197.19L929.07 142.19L929.07 32.19zM1119.6 142.19L1214.87 197.19L1214.87 307.19L1119.6 362.19L1024.34 307.19L1024.34 197.19zM1024.34 307.19L1119.6 362.19L1119.6 472.19L1024.34 527.19L929.07 472.19L929.07 362.19zM1214.87 -22.81L1310.13 32.19L1310.13 142.19L1214.87 197.19L1119.6 142.19L1119.6 32.19zM1310.13 472.19L1405.4 527.19L1405.4 637.19L1310.13 692.19L1214.87 637.19L1214.87 527.19zM1500.66 142.19L1595.93 197.19L1595.93 307.19L1500.66 362.19L1405.4 307.19L1405.4 197.19zM1405.4 307.19L1500.66 362.19L1500.66 472.19L1405.4 527.19L1310.13 472.19L1310.13 362.19z" stroke="#03305d" stroke-width="2"></path><path d="M155.95 142.19 a11 11 0 1 0 22 0 a11 11 0 1 0 -22 0zM251.21 197.19 a11 11 0 1 0 22 0 a11 11 0 1 0 -22 0zM251.21 307.19 a11 11 0 1 0 22 0 a11 11 0 1 0 -22 0zM155.95 362.19 a11 11 0 1 0 22 0 a11 11 0 1 0 -22 0zM60.68 307.19 a11 11 0 1 0 22 0 a11 11 0 1 0 -22 0zM60.68 197.19 a11 11 0 1 0 22 0 a11 11 0 1 0 -22 0zM346.48 142.19 a11 11 0 1 0 22 0 a11 11 0 1 0 -22 0zM441.74 197.19 a11 11 0 1 0 22 0 a11 11 0 1 0 -22 0zM441.74 307.19 a11 11 0 1 0 22 0 a11 11 0 1 0 -22 0zM346.48 362.19 a11 11 0 1 0 22 0 a11 11 0 1 0 -22 0zM727.54 142.19 a11 11 0 1 0 22 0 a11 11 0 1 0 -22 0zM822.8 197.19 a11 11 0 1 0 22 0 a11 11 0 1 0 -22 0zM822.8 307.19 a11 11 0 1 0 22 0 a11 11 0 1 0 -22 0zM727.54 362.19 a11 11 0 1 0 22 0 a11 11 0 1 0 -22 0zM632.27 307.19 a11 11 0 1 0 22 0 a11 11 0 1 0 -22 0zM632.27 197.19 a11 11 0 1 0 22 0 a11 11 0 1 0 -22 0zM727.54 472.19 a11 11 0 1 0 22 0 a11 11 0 1 0 -22 0zM822.8 527.19 a11 11 0 1 0 22 0 a11 11 0 1 0 -22 0zM822.8 637.19 a11 11 0 1 0 22 0 a11 11 0 1 0 -22 0zM727.54 692.19 a11 11 0 1 0 22 0 a11 11 0 1 0 -22 0zM632.27 637.19 a11 11 0 1 0 22 0 a11 11 0 1 0 -22 0zM632.27 527.19 a11 11 0 1 0 22 0 a11 11 0 1 0 -22 0zM822.8 -22.81 a11 11 0 1 0 22 0 a11 11 0 1 0 -22 0zM918.07 32.19 a11 11 0 1 0 22 0 a11 11 0 1 0 -22 0zM918.07 142.19 a11 11 0 1 0 22 0 a11 11 0 1 0 -22 0zM727.54 32.19 a11 11 0 1 0 22 0 a11 11 0 1 0 -22 0zM1013.34 -22.81 a11 11 0 1 0 22 0 a11 11 0 1 0 -22 0zM1108.6 32.19 a11 11 0 1 0 22 0 a11 11 0 1 0 -22 0zM1108.6 142.19 a11 11 0 1 0 22 0 a11 11 0 1 0 -22 0zM1013.34 197.19 a11 11 0 1 0 22 0 a11 11 0 1 0 -22 0zM1203.87 197.19 a11 11 0 1 0 22 0 a11 11 0 1 0 -22 0zM1203.87 307.19 a11 11 0 1 0 22 0 a11 11 0 1 0 -22 0zM1108.6 362.19 a11 11 0 1 0 22 0 a11 11 0 1 0 -22 0zM1013.34 307.19 a11 11 0 1 0 22 0 a11 11 0 1 0 -22 0zM1108.6 472.19 a11 11 0 1 0 22 0 a11 11 0 1 0 -22 0zM1013.34 527.19 a11 11 0 1 0 22 0 a11 11 0 1 0 -22 0zM918.07 472.19 a11 11 0 1 0 22 0 a11 11 0 1 0 -22 0zM918.07 362.19 a11 11 0 1 0 22 0 a11 11 0 1 0 -22 0zM1203.87 -22.81 a11 11 0 1 0 22 0 a11 11 0 1 0 -22 0zM1299.13 32.19 a11 11 0 1 0 22 0 a11 11 0 1 0 -22 0zM1299.13 142.19 a11 11 0 1 0 22 0 a11 11 0 1 0 -22 0zM1299.13 472.19 a11 11 0 1 0 22 0 a11 11 0 1 0 -22 0zM1394.4 527.19 a11 11 0 1 0 22 0 a11 11 0 1 0 -22 0zM1394.4 637.19 a11 11 0 1 0 22 0 a11 11 0 1 0 -22 0zM1299.13 692.19 a11 11 0 1 0 22 0 a11 11 0 1 0 -22 0zM1203.87 637.19 a11 11 0 1 0 22 0 a11 11 0 1 0 -22 0zM1203.87 527.19 a11 11 0 1 0 22 0 a11 11 0 1 0 -22 0zM1489.66 142.19 a11 11 0 1 0 22 0 a11 11 0 1 0 -22 0zM1584.93 197.19 a11 11 0 1 0 22 0 a11 11 0 1 0 -22 0zM1584.93 307.19 a11 11 0 1 0 22 0 a11 11 0 1 0 -22 0zM1489.66 362.19 a11 11 0 1 0 22 0 a11 11 0 1 0 -22 0zM1394.4 307.19 a11 11 0 1 0 22 0 a11 11 0 1 0 -22 0zM1394.4 197.19 a11 11 0 1 0 22 0 a11 11 0 1 0 -22 0zM1489.66 472.19 a11 11 0 1 0 22 0 a11 11 0 1 0 -22 0zM1299.13 362.19 a11 11 0 1 0 22 0 a11 11 0 1 0 -22 0z" fill="#03305d"></path><path d="M80.12 36.32L123.43 61.32L123.43 111.32L80.12 136.32L36.82 111.32L36.82 61.32zM36.82 111.32L80.12 136.32L80.12 186.32L36.82 211.32L-6.48 186.32L-6.48 136.32zM80.12 186.32L123.43 211.32L123.43 261.32L80.12 286.32L36.82 261.32L36.82 211.32zM123.43 -38.68L166.73 -13.68L166.73 36.32L123.43 61.32L80.12 36.32L80.12 -13.68zM123.43 111.32L166.73 136.32L166.73 186.32L123.43 211.32L80.12 186.32L80.12 136.32zM123.43 261.32L166.73 286.32L166.73 336.32L123.43 361.32L80.12 336.32L80.12 286.32zM166.73 336.32L210.03 361.32L210.03 411.32L166.73 436.32L123.43 411.32L123.43 361.32zM210.03 -38.68L253.33 -13.68L253.33 36.32L210.03 61.32L166.73 36.32L166.73 -13.68zM253.33 36.32L296.63 61.32L296.63 111.32L253.33 136.32L210.03 111.32L210.03 61.32zM253.33 486.32L296.63 511.32L296.63 561.32L253.33 586.32L210.03 561.32L210.03 511.32zM339.94 36.32L383.24 61.32L383.24 111.32L339.94 136.32L296.63 111.32L296.63 61.32zM296.63 411.32L339.94 436.32L339.94 486.32L296.63 511.32L253.33 486.32L253.33 436.32zM383.24 111.32L426.54 136.32L426.54 186.32L383.24 211.32L339.94 186.32L339.94 136.32zM426.54 336.32L469.85 361.32L469.85 411.32L426.54 436.32L383.24 411.32L383.24 361.32zM469.85 111.32L513.15 136.32L513.15 186.32L469.85 211.32L426.54 186.32L426.54 136.32zM469.85 261.32L513.15 286.32L513.15 336.32L469.85 361.32L426.54 336.32L426.54 286.32zM469.85 411.32L513.15 436.32L513.15 486.32L469.85 511.32L426.54 486.32L426.54 436.32zM556.45 -38.68L599.75 -13.68L599.75 36.32L556.45 61.32L513.15 36.32L513.15 -13.68zM599.75 36.32L643.06 61.32L643.06 111.32L599.75 136.32L556.45 111.32L556.45 61.32zM599.75 186.32L643.06 211.32L643.06 261.32L599.75 286.32L556.45 261.32L556.45 211.32zM556.45 261.32L599.75 286.32L599.75 336.32L556.45 361.32L513.15 336.32L513.15 286.32zM599.75 336.32L643.06 361.32L643.06 411.32L599.75 436.32L556.45 411.32L556.45 361.32zM599.75 486.32L643.06 511.32L643.06 561.32L599.75 586.32L556.45 561.32L556.45 511.32zM643.06 -38.68L686.36 -13.68L686.36 36.32L643.06 61.32L599.75 36.32L599.75 -13.68zM643.06 111.32L686.36 136.32L686.36 186.32L643.06 211.32L599.75 186.32L599.75 136.32zM686.36 186.32L729.66 211.32L729.66 261.32L686.36 286.32L643.06 261.32L643.06 211.32zM643.06 261.32L686.36 286.32L686.36 336.32L643.06 361.32L599.75 336.32L599.75 286.32zM686.36 336.32L729.66 361.32L729.66 411.32L686.36 436.32L643.06 411.32L643.06 361.32zM643.06 411.32L686.36 436.32L686.36 486.32L643.06 511.32L599.75 486.32L599.75 436.32zM686.36 486.32L729.66 511.32L729.66 561.32L686.36 586.32L643.06 561.32L643.06 511.32zM729.66 -38.68L772.96 -13.68L772.96 36.32L729.66 61.32L686.36 36.32L686.36 -13.68zM772.96 36.32L816.27 61.32L816.27 111.32L772.96 136.32L729.66 111.32L729.66 61.32zM772.96 186.32L816.27 211.32L816.27 261.32L772.96 286.32L729.66 261.32L729.66 211.32zM729.66 261.32L772.96 286.32L772.96 336.32L729.66 361.32L686.36 336.32L686.36 286.32zM772.96 336.32L816.27 361.32L816.27 411.32L772.96 436.32L729.66 411.32L729.66 361.32zM816.27 111.32L859.57 136.32L859.57 186.32L816.27 211.32L772.96 186.32L772.96 136.32zM859.57 186.32L902.87 211.32L902.87 261.32L859.57 286.32L816.27 261.32L816.27 211.32zM859.57 336.32L902.87 361.32L902.87 411.32L859.57 436.32L816.27 411.32L816.27 361.32zM946.17 186.32L989.48 211.32L989.48 261.32L946.17 286.32L902.87 261.32L902.87 211.32zM902.87 261.32L946.17 286.32L946.17 336.32L902.87 361.32L859.57 336.32L859.57 286.32zM902.87 411.32L946.17 436.32L946.17 486.32L902.87 511.32L859.57 486.32L859.57 436.32zM1032.78 36.32L1076.08 61.32L1076.08 111.32L1032.78 136.32L989.48 111.32L989.48 61.32zM1032.78 186.32L1076.08 211.32L1076.08 261.32L1032.78 286.32L989.48 261.32L989.48 211.32zM989.48 411.32L1032.78 436.32L1032.78 486.32L989.48 511.32L946.17 486.32L946.17 436.32zM1032.78 486.32L1076.08 511.32L1076.08 561.32L1032.78 586.32L989.48 561.32L989.48 511.32zM1119.38 36.32L1162.68 61.32L1162.68 111.32L1119.38 136.32L1076.08 111.32L1076.08 61.32zM1076.08 111.32L1119.38 136.32L1119.38 186.32L1076.08 211.32L1032.78 186.32L1032.78 136.32zM1119.38 186.32L1162.68 211.32L1162.68 261.32L1119.38 286.32L1076.08 261.32L1076.08 211.32zM1162.68 -38.68L1205.99 -13.68L1205.99 36.32L1162.68 61.32L1119.38 36.32L1119.38 -13.68zM1205.99 36.32L1249.29 61.32L1249.29 111.32L1205.99 136.32L1162.68 111.32L1162.68 61.32zM1162.68 111.32L1205.99 136.32L1205.99 186.32L1162.68 211.32L1119.38 186.32L1119.38 136.32zM1205.99 186.32L1249.29 211.32L1249.29 261.32L1205.99 286.32L1162.68 261.32L1162.68 211.32zM1162.68 411.32L1205.99 436.32L1205.99 486.32L1162.68 511.32L1119.38 486.32L1119.38 436.32zM1292.59 186.32L1335.89 211.32L1335.89 261.32L1292.59 286.32L1249.29 261.32L1249.29 211.32zM1249.29 261.32L1292.59 286.32L1292.59 336.32L1249.29 361.32L1205.99 336.32L1205.99 286.32zM1292.59 336.32L1335.89 361.32L1335.89 411.32L1292.59 436.32L1249.29 411.32L1249.29 361.32zM1249.29 411.32L1292.59 436.32L1292.59 486.32L1249.29 511.32L1205.99 486.32L1205.99 436.32zM1335.89 -38.68L1379.2 -13.68L1379.2 36.32L1335.89 61.32L1292.59 36.32L1292.59 -13.68zM1379.2 36.32L1422.5 61.32L1422.5 111.32L1379.2 136.32L1335.89 111.32L1335.89 61.32zM1335.89 261.32L1379.2 286.32L1379.2 336.32L1335.89 361.32L1292.59 336.32L1292.59 286.32zM1465.8 36.32L1509.11 61.32L1509.11 111.32L1465.8 136.32L1422.5 111.32L1422.5 61.32zM1422.5 411.32L1465.8 436.32L1465.8 486.32L1422.5 511.32L1379.2 486.32L1379.2 436.32z" stroke="rgba(0, 254, 252, 1)" stroke-width="2"></path></g><defs><mask id="SvgjsMask1184"><rect width="1440" height="560" fill="#ffffff"></rect></mask></defs></svg>